<?xml version="1.0" standalone="no"?>
<!DOCTYPE svg PUBLIC "-//W3C//DTD SVG 1.1//EN" "http://www.w3.org/Graphics/SVG/1.1/DTD/svg11.dtd" >
<!--
2013-9-30: Created.
-->
<svg>
<metadata>
Created by iconfont
</metadata>
<defs>

<font id="iconfont" horiz-adv-x="1024" >
  <font-face
    font-family="iconfont"
    font-weight="500"
    font-stretch="normal"
    units-per-em="1024"
    ascent="896"
    descent="-128"
  />
    <missing-glyph />
    
    <glyph glyph-name="live" unicode="&#58901;" d="M814.077952 682.801152l0.106496-0.053248H637.31712l49.125376 87.975936a31.582208 31.582208 0 0 1-9.09312 39.817216c-13.236224 7.532544-29.057024 2.473984-37.720064-12.105728l-64.516096-115.687424h-138.82368l-64.622592 115.955712c-8.66304 14.419968-24.537088 19.42528-37.558272 11.890688a31.422464 31.422464 0 0 1-9.09312-39.979008l49.072128-87.814144h-164.114432c-69.195776 0-127.578112-61.018112-127.578112-133.175296v-462.532608c0-72.210432 58.382336-133.175296 127.524864-133.175296h604.155904c71.510016 0 127.524864 58.488832 127.524864 133.175296V549.627904c0.002048 72.155136-58.380288 133.173248-127.522816 133.173248zM345.849856 239.7696v-18.096128h-117.69856v203.071488H263.102464v-167.016448h82.747392v-17.958912z m78.721024-18.096128H389.619712v203.071488H424.57088v-203.071488z m131.489792 0h-33.155072l-56.225792 203.071488h37.124096l36.108288-155.246592 36.2496 155.246592H612.284416l-56.223744-203.071488z m227.364864 18.096128v-18.096128h-126.40256v203.071488h123.224064v-36.05504h-88.274944v-42.549248h80.676864v-36.05504h-80.676864v-52.355072h91.451392v-17.96096z"  horiz-adv-x="1024" />

    
    <glyph glyph-name="noodle" unicode="&#58987;" d="M92.9 226.3c-7.2 0-14 4.4-16.8 11.5-5.1 13.1-9.6 26.6-13.5 40.2-2.7 9.6 2.8 19.5 12.4 22.3 9.6 2.7 19.5-2.8 22.3-12.4 3.6-12.5 7.8-25 12.4-37.1 3.6-9.3-1-19.7-10.3-23.3-2.2-0.9-4.4-1.2-6.5-1.2zM505.8-48c-86.2 0-165.4 20-235.4 59.4-66 37.2-121.5 91.5-160.6 157-5.1 8.5-2.3 19.6 6.2 24.7 8.5 5.1 19.6 2.3 24.7-6.2C216.2 60.5 349.3-12 505.8-12c240.8 0 417.2 170.5 425.7 408H80.2c0.5-12.7 1.5-25.3 2.9-37.7 1.2-9.9-5.9-18.8-15.7-20-9.9-1.2-18.8 5.9-20 15.8-2.3 19.7-3.5 39.8-3.5 59.9 0 9.9 8.1 18 18 18h888c9.9 0 18-8.1 18-18 0-125.2-45.3-241-127.6-326.1-41.4-42.8-90.6-76.3-146.2-99.5-58-24.2-121.3-36.4-188.3-36.4zM436.3 651.4c-8.2 0-15.6 5.6-17.5 13.9-2.3 9.7 3.7 19.4 13.4 21.6l458.1 107.6c9.7 2.3 19.4-3.7 21.6-13.4 2.3-9.7-3.7-19.4-13.4-21.6l-458-107.6c-1.4-0.4-2.8-0.5-4.2-0.5zM117.1 576.4c-8.2 0-15.6 5.6-17.5 13.9-2.3 9.7 3.7 19.4 13.4 21.6l86.6 20.3c9.7 2.3 19.4-3.7 21.6-13.4 2.3-9.7-3.7-19.4-13.4-21.6l-86.6-20.3c-1.3-0.3-2.7-0.5-4.1-0.5zM436.3 542.6c-8.2 0-15.6 5.6-17.5 13.9-2.3 9.7 3.7 19.4 13.4 21.6l458.1 107.6c9.7 2.3 19.4-3.7 21.6-13.4 2.3-9.7-3.7-19.4-13.4-21.6l-458-107.6c-1.4-0.4-2.8-0.5-4.2-0.5zM117.1 467.6c-8.2 0-15.6 5.6-17.5 13.9-2.3 9.7 3.7 19.4 13.4 21.6l82 19.3c9.7 2.3 19.4-3.7 21.6-13.4 2.3-9.7-3.7-19.4-13.4-21.6l-82-19.3c-1.3-0.3-2.7-0.5-4.1-0.5zM206.5 405.6c-9.9 0-18 8.1-18 18V631.9c0 30.1 20.8 56.2 33.2 69.1 14.6 15.1 36.9 32 55.8 34.1 9.9 1.1 18.8-6 19.9-15.9 1.1-9.9-6-18.8-15.9-19.9-4.4-0.5-18.9-7.8-33.8-23.3-14.5-15-23.1-31.5-23.1-44.1v-208.3c-0.1-10-8.1-18-18.1-18zM318 402.3c-9.9 0-18 8.1-18 18V661.4c0 30.1 20.8 56.2 33.2 69.1 14.6 15.1 36.9 32 55.8 34.1 9.9 1.1 18.8-6 19.9-15.9 1.1-9.9-6-18.8-15.9-19.9-4.4-0.5-18.9-7.8-33.8-23.3-14.5-15-23.1-31.5-23.1-44.1v-241.1c-0.1-9.9-8.1-18-18.1-18zM429.6 415.4c-9.9 0-18 8.1-18 18V674.5c0 30.1 20.8 56.2 33.2 69.1 14.6 15.1 36.9 32 55.8 34.1 9.9 1.1 18.8-6 19.9-15.9 1.1-9.9-6-18.8-15.9-19.9-4.4-0.5-18.9-7.8-33.8-23.3-14.5-15-23.1-31.5-23.1-44.1v-241.1c-0.1-9.9-8.2-18-18.1-18z"  horiz-adv-x="1024" />

    
    <glyph glyph-name="miantiao" unicode="&#58908;" d="M104.5 444.4h780l10.5-17-34.5-169.2-31.5-58.5-88.5-102-97.5-55.4-148.4-21.1-141.1 21.1-91.5 44.9-87 93-60 126-16.5 121.2zM456.7 623.1h488.9c7.9 0 14.3 6.4 14.3 14.3v9.9c0 7.9-6.4 14.3-14.3 14.3H461.1c1.1 6.3 2.4 11.8 3.7 16.7 3 11 6.3 18.8 9.4 24.4 7.1 12.8 13.7 14.7 14.7 14.9 9.5 0.6 17.1 10.2 17.1 21.9 0 5.2-1.5 9.9-3.9 13.6-3.3 5.1-8.4 8.3-14.1 8.3-2.3 0-11.2-0.6-21.9-8.3-5.4-3.9-11.4-9.8-17.1-18.3-9.5-14.1-16.7-33-21.6-56.6-2.4-11.7-4.3-24.5-5.5-38.5-1-10.9-1.6-22.6-1.9-34.9-0.1-4.6-0.2-9.4-0.2-14.3v-16.7l0.1-24.2h0.1V535l0.1-38.5 0.1-33.7-94 0.1-0.1 33.7-0.1 38.5-0.1 31.3-0.1 24.3c0 4.9 0.1 9.6 0.2 14.2 0.3 13.1 1 24.7 2.1 34.9 1.6 15.9 4 28.5 6.7 38.5 3 11 6.3 18.8 9.4 24.4 7.1 12.8 13.7 14.7 14.7 14.9 9.5 0.6 17.1 10.2 17.1 21.9 0 5.2-1.5 9.9-3.9 13.6-3.3 5.1-8.4 8.3-14.1 8.3-2.3 0-11.2-0.6-21.9-8.3-5.4-3.9-11.4-9.8-17.1-18.3-9.5-14.1-16.7-33-21.6-56.6-2.4-11.7-4.3-24.5-5.5-38.5-1-10.9-1.6-22.6-1.9-34.9-0.1-4.6-0.2-9.4-0.2-14.3l0.1-24.2 0.1-31.3 0.1-38.5 0.1-33.6-98.2 0.1-0.1 33.5-0.1 38.5-0.1 31.3v14c0 2.7 0.1 5.3 0.1 7.8h-0.2v2.5c0 4.9 0.1 9.6 0.2 14.2 0.3 13.1 1 24.7 2.1 34.9 1.6 15.9 4 28.5 6.7 38.5 2.9 11 6.3 18.8 9.4 24.4 7.1 12.8 13.7 14.7 14.6 14.9 9.5 0.6 17.1 10.2 17.1 21.9 0 5.2-1.5 9.9-3.9 13.6-3.3 5.1-8.4 8.3-14.1 8.3-2.3 0-11.2-0.6-21.9-8.3-5.4-3.9-11.3-9.8-17.1-18.3-9.5-14.1-16.7-33-21.6-56.6-1.1-5.3-2.1-10.9-2.9-16.7H77.9c-7.6 0-13.9-6.4-13.9-14.3v-9.9c0-7.9 6.3-14.3 13.9-14.3h78.5c-0.3-5.9-0.6-11.9-0.7-18.2-0.1-4.6-0.2-9.4-0.2-14.3v-2.4H78.3c-7.9 0-14.3-6.4-14.3-14.3v-9.9c0-7.9 6.4-14.3 14.3-14.3h77.4v-14.6l0.1-38.5 0.1-33.5-55.3 0.1c-11.3 0-20.6-8.5-21.8-19.5-0.1-0.8-0.1-1.6-0.1-2.4 0-0.4 0-2.8 0.1-6.7 0.5-15.7 3.1-56.9 15.5-108.2 9.2-37.8 21.9-73.4 37.7-105.7 20-40.8 45.1-76.4 74.6-106 71.7-71.8 168.7-108.2 288.3-108.2 120.6 0 218 36.6 289.6 108.8 29.3 29.6 54.2 65.2 73.9 105.8 15.6 32.2 28.1 67.6 37 105.3 15.2 64 15 112.4 14.9 114.4-0.1 12-9.9 21.8-21.9 21.8l-432.3 0.3-0.1 33.8-0.1 38.5v14.6h489.7c7.9 0 14.3 6.4 14.3 14.3v9.9c0 7.9-6.4 14.3-14.3 14.3H455.8v2.5c0 4.9 0.1 9.6 0.2 14.2 0.1 6.6 0.4 12.6 0.7 18.3zM495 42.3c-109.8 0-198.3 32.9-263 97.7-26.8 26.8-49.6 59.3-67.9 96.5-14.7 30-26.5 63.1-35.1 98.3-9.8 40.5-13.1 74.6-14.1 92.6l759.3-0.6c-1-17.9-4-51.8-13.5-92.1-8.3-35.1-19.9-68.1-34.4-97.9-18-37.1-40.6-69.4-67.1-96.2-64.6-65.3-153.5-98.3-264.2-98.3z"  horiz-adv-x="1024" />

    
    <glyph glyph-name="hanbao" unicode="&#58903;" d="M0.215983 336.098274m77.467944-0.202812l973.638017-2.548984q77.467944-0.202811 77.265132-77.670755l-0.012033-4.596402q-0.202811-77.467944-77.670755-77.265133l-973.638016 2.548984q-77.467944 0.202811-77.265133 77.670755l0.012033 4.596403q0.202811 77.467944 77.670755 77.265132ZM75.471195 335.924231c-34.830004 0.085648-64.107191-24.966261-72.800418-59.025436 8.564755-33.902155 37.699197-58.925515 72.400729-59.011163l978.095026-2.483779c34.844278-0.099922 64.121466 24.966261 72.800418 59.025437-8.564755 33.902155-37.684922 58.925515-72.386455 59.011162zM995.796948 419.273572H127.273688s-179.688561-109.457569-65.177786-155.849992c32.289127-13.075526 76.212045 23.93849 98.037896 41.396316 20.155724 16.273035 33.473918 27.021802 63.593306 27.021802s43.437583-10.705944 63.593307-26.907605c23.281859-18.699715 52.245006-41.981574 107.858815-41.981575s84.519858 23.210486 107.858815 41.953026c18.956658 15.245264 32.032184 25.494421 58.525826 26.664937 26.536466-1.170517 39.611992-11.419673 58.525826-26.664937 23.25331-18.71399 52.216457-41.995849 107.787442-41.995849s84.576956 23.281859 107.858815 41.981574c20.169998 16.201662 33.488192 26.950429 63.607581 26.950429s43.437583-10.705944 63.593306-26.907605c21.825851-17.529199 65.74877-54.543215 98.023622-41.396316 114.525049 46.278226-65.163511 155.735796-65.163511 155.735795zM164.730217 331.841698c-30.119389 0-43.437583-10.705944-63.593306-26.907605-12.190501-9.79237-31.289905-25.694265-51.388531-35.486635a109.714512 109.714512 0 0 1 12.347522-5.981054c32.289127-13.075526 76.212045 23.93849 98.037896 41.396316 12.104854 9.735272 21.797302 17.429277 34.102 22.054244a81.365173 81.365173 0 0 1-29.505581 4.924734zM502.53843 331.570481c-26.522191-1.170517-39.611992-11.419673-58.525826-26.664937-18.71399-15.04542-41.396316-32.831561-78.31041-39.326501a168.768498 168.768498 0 0 1 29.505581-2.669348c55.570986 0 84.519858 23.281859 107.787442 41.995849 10.377628 8.336362 19.042305 15.102518 29.077343 19.784584a74.855959 74.855959 0 0 1-29.53413 6.880353zM995.796948 419.273572h-58.996888s165.228399-100.721519 77.525308-149.883213c15.887621-7.751103 32.403323-11.747989 46.635091-5.981054 114.525049 46.406698-65.163511 155.864267-65.163511 155.864267zM840.346644 331.841698c-30.119389 0-43.437583-10.705944-63.593307-26.907605-18.71399-15.031145-41.396316-32.831561-78.353234-39.312226a168.725674 168.725674 0 0 1 29.491307-2.669349c55.670908 0 84.576956 23.281859 107.858815 41.981575 12.104854 9.735272 21.797302 17.429277 34.102 22.054244a81.365173 81.365173 0 0 1-29.505581 4.853361zM1057.106319-127.800156l-979.451112-0.199844c-25.023359 0-46.149755 22.125617-49.261616 51.631198L12.463147 74.699203c-1.855697 17.600572 9.678173 33.145602 24.609396 33.145602l1060.502244 0.242668c14.931223 0 26.479368-15.530756 24.637945-33.131328L1106.353661-76.111859c-3.097586-29.505581-24.209708-51.688297-49.247342-51.688297zM12.263302 108.087473m26.864782 0l840.959023 0q26.864782 0 26.864782-26.864782l0-1.598754q0-26.864782-26.864782-26.864782l-840.959023 0q-26.864782 0-26.864782 26.864782l0 1.598754q0 26.864782 26.864782 26.864782ZM30.663251-87.831299c6.680509-23.553076 25.3374-40.125877 46.977682-40.125877l979.465386 0.15702c25.037634 0 46.149755 22.154166 49.247342 51.659748l15.859071 151.039455c1.712951 16.25876-8.065144 30.59045-21.311966 32.70309-105.003897-141.78952-419.587349-206.581892-1070.237515-195.433436zM1068.197677 100.236447a39.968857 39.968857 0 0 1 39.783287 37.642099c1.184791 22.996367-16.016092 42.067222-37.470803 42.12432L69.461592 182.543743a39.968857 39.968857 0 0 1-39.783288-37.699197c-1.184791-22.996367 16.030367-42.067222 37.470804-42.12432l571.369083-1.427459zM1024.360406 107.259546L873.206754-52.30184c-31.489749-34.07345-53.001559-11.276927-63.322089-0.34259l-46.449522 49.247341 185.912283 111.484562zM1070.510161 180.002866L69.461592 182.543743a39.968857 39.968857 0 0 1-37.342332-26.450818c5.395796-14.945498 19.028031-25.594343 35.029848-25.694265l566.844037-1.42746 169.696347-179.859855a25.051908 25.051908 0 0 1 36.89982 0l168.797047 178.946282 58.811318-0.157021a39.968857 39.968857 0 0 1 37.356606 26.450819c-5.395796 14.959772-19.028031 25.608618-35.044122 25.651441zM20.735621 442.346867m47.006069-0.123062l984.401022-2.577162q47.006069-0.123062 46.883008-47.129131l-0.007325-2.797811q-0.123062-47.006069-47.129131-46.883007l-984.401022 2.577162q-47.006069 0.123062-46.883008 47.129131l0.007325 2.79781q0.123062 47.006069 47.129131 46.883008ZM1061.545717 438.372976l-1003.189758 2.6408c-16.201662 0-29.976643-11.234104-35.243967-26.993253 5.310148-15.702051 18.942383-26.92188 35.072672-26.964704l1003.175483-2.6408c16.201662 0 29.976643 11.234104 35.243967 26.993253-5.310148 15.673502-18.928109 26.92188-35.058397 26.964704zM1072.936841 538.694807c19.256424 1.427459 30.704647 23.924216 20.79808 41.496238C979.438265 782.918797 764.26307 911.904008 526.733863 894.417633S92.914746 717.683913 6.168052 500.082036C-1.354658 481.225301 12.919934 460.61279 32.176358 462.040249zM526.733863 894.417633C289.233206 876.916983 92.914746 717.683913 6.168052 500.082036a27.935376 27.935376 0 0 1 14.67428-36.029069c142.189208 1.984168 312.884776 29.53413 491.388546 84.220091 172.765384 52.901637 326.531286 123.189727 446.166639 198.95926C841.902574 849.566866 689.564131 906.40829 526.733863 894.417633zM543.820549 866.753474a636.504045 636.504045 0 0 0 396.305491-104.118872C826.143425 855.148231 681.19922 905.780208 526.733863 894.417633 289.233206 876.916983 92.914746 717.683913 6.168052 500.082036a28.306515 28.306515 0 0 1-1.812873-8.264988C99.58098 699.440984 301.295236 849.780985 543.820549 866.753474zM221.218805 671.920132a104.647032 31.132885 24.35 1 1 190.676062 86.293941 104.647032 31.132885 24.35 1 1-190.676062-86.293941ZM46.918976 299.047093a24.12406 12.219051 40.34 1 1 36.775518 31.232073 24.12406 12.219051 40.34 1 1-36.775518-31.232073Z"  horiz-adv-x="1128" />

    
    <glyph glyph-name="dache_fill" unicode="&#58902;" d="M990.277 403.758c0 27.913-34.886 50.553-77.921 50.553-13.985 0-27.076-2.414-38.416-6.595l-58.991 168.39c-13.564 22.359-15.271 46.331-36.789 46.331l-92.801 0-13.252 68.048c-5.471 19.263-31.521 27.186-53.036 27.186l-212.116 0c-21.515 0-47.738-7.923-53.027-27.186l-13.261-68.048-92.803 0c-21.515 0-27.467-26.743-36.8-46.331l-58.967-168.39c-11.35 4.182-24.462 6.595-38.437 6.595-43.034 0-77.913-22.641-77.913-50.553 0-27.91 34.879-50.551 77.913-50.551 0.352 0 0.692 0.038 1.044 0.038 0.201-1.246 0.282-2.414 0.583-3.699-3.619-63.221 31.31-268.976 37.341-299.701 7.842-34.546 20.692-40.458 42.208-40.458l79.54 0c21.515 0 34.105 18.138 34.105 40.458l0 43.877c10.124-1.044 20.681-2.012 32.182-2.694 125.52-7.562 237.061-8.485 344.694 0 11.323 0.885 21.929 1.97 32.194 3.137l0-44.32c0-22.32 12.578-40.458 34.094-40.458l79.55 0c21.516 0 36.787 16.972 42.198 40.458 12.619 36.679 63.648 252.924 50.363 303.965 37.613 3.578 66.518 24.532 66.518 49.95zM247.863 186.26300000000003c-43.938 0-79.539 36.557-79.539 81.641s35.601 81.642 79.539 81.642c43.927 0 79.551-36.558 79.551-81.642s-35.623-81.641-79.551-81.641zM645.583 417.553c-55.236-7.522-196.782-4.745-238.628 0-41.857 4.705-137.453 16.53-137.453 16.53-21.517 0-38.961 18.137-38.961 40.458l19.497 80.879c8.101 28.433 16.085 39.01 37.604 39.01l450.745 0c21.527 0 29.491-10.577 37.615-39.01l19.476-80.879c0-22.321-17.444-40.458-38.961-40.458-0.002-0.001-55.684-8.971-110.934-16.53zM791.423 186.26300000000003c-43.936 0-79.55 36.557-79.55 81.641s35.613 81.642 79.55 81.642c43.918 0 79.539-36.558 79.539-81.642s-35.622-81.641-79.539-81.641z"  horiz-adv-x="1024" />

    
    <glyph glyph-name="damaiwang" unicode="&#59762;" d="M87.04 15.360000000000014s33.28-30.72 33.28-74.24c0-12.8-20.48-28.16-17.92-28.16 69.12 7.68 145.92 40.96 145.92 40.96s64 30.72 112.64 71.68c35.84 30.72 56.32 84.48 56.32 84.48s15.36 30.72 33.28 71.68c17.92 38.4 38.4 81.92 38.4 81.92s7.68 20.48 20.48 40.96c10.24 15.36 33.28 30.72 33.28 30.72s-7.68 2.56-15.36 2.56c-5.12 0-15.36-5.12-15.36-5.12s-17.92-12.8-35.84-35.84c-25.6-33.28-61.44-92.16-92.16-133.12-53.76-74.24-76.8-102.4-179.2-133.12-51.2-17.92-117.76-15.36-117.76-15.36zM1011.2 220.15999999999997c-5.12-33.28-15.36-76.8-112.64-46.08l-320 120.32h-2.56l345.6 5.12c89.6 5.12 97.28-43.52 89.6-79.36zM1018.88 394.24c5.12-33.28 10.24-79.36-92.16-79.36l-343.04 10.24h-2.56l325.12 115.2c87.04 30.72 107.52-12.8 112.64-46.08zM952.32 573.44c17.92-30.72 40.96-66.56-53.76-110.08l-317.44-128c2.56 0 5.12 2.56-2.56 0l250.88 235.52c66.56 64 104.96 33.28 122.88 2.56zM834.56 706.56c28.16-20.48 61.44-51.2-12.8-120.32L563.2 358.4s5.12 5.12 0-2.56l158.72 307.2c38.4 81.92 84.48 66.56 112.64 43.52zM673.28 793.6c33.28-10.24 74.24-25.6 28.16-117.76L537.6 373.76c0 2.56 2.56 5.12 0-2.56l43.52 343.04c10.24 89.6 58.88 89.6 92.16 79.36zM33.28 158.72000000000003c-10.24 33.28-23.04 76.8 76.8 92.16l340.48 46.08c-2.56 0-5.12-2.56 2.56 0L151.04 133.12c-79.36-46.08-107.52-7.68-117.76 25.6zM488.96 824.3199999999999c35.84 2.56 79.36 2.56 69.12-99.84L512 381.44000000000005v-2.56L432.64 716.8c-25.6 87.04 20.48 104.96 56.32 107.52zM307.2 780.8c33.28 12.8 74.24 28.16 99.84-69.12l74.24-335.36c0 2.56-2.56 5.12 0-2.56L289.28 660.48c-51.2 74.24-15.36 107.52 17.92 120.32zM112.64 412.16l327.68-99.84h2.56l-343.04-25.6C10.24 276.48 0 325.12 2.56 360.96000000000004c2.56 33.28 10.24 76.8 110.08 51.2zM53.76 527.36c15.36 30.72 38.4 69.12 120.32 10.24l271.36-209.92c-2.56 0-5.12 2.56 2.56 0L117.76 424.96c-89.6 23.04-81.92 71.68-64 102.4zM161.28 673.28c25.6 23.04 58.88 51.2 117.76-33.28l179.2-291.84s-5.12 5.12 0 0L184.32 555.52c-71.68 53.76-48.64 94.72-23.04 117.76zM619.52 238.08000000000004c-23.04 20.48-43.52 35.84-43.52 38.4-2.56-2.56-7.68-5.12-15.36-12.8s-20.48-20.48-30.72-35.84c-7.68-12.8-15.36-25.6-23.04-40.96-5.12-12.8-12.8-28.16-17.92-43.52-10.24-25.6-15.36-46.08-15.36-46.08s-64-215.04-66.56-220.16h322.56c-5.12 7.68-28.16 40.96-53.76 79.36-15.36 28.16-28.16 53.76-38.4 79.36-10.24 30.72-17.92 58.88-17.92 84.48 0 17.92 2.56 35.84 10.24 48.64l2.56 2.56s2.56 2.56 2.56 5.12c2.56 2.56 7.68 7.68 15.36 10.24 5.12 0 7.68 2.56 12.8 2.56h10.24l158.72-138.24c79.36-66.56 102.4-28.16 120.32 2.56 17.92 30.72 28.16 76.8-56.32 107.52l-322.56 117.76c7.68-5.12 2.56-2.56 2.56 0l43.52-40.96z"  horiz-adv-x="1024" />

    
    <glyph glyph-name="jiaoyupeixun" unicode="&#58904;" d="M1243.43 696.539V769.755h-40.3749V2.9260000000000446c-187.392-30.5006-358.546-58.0754-528.018-85.6503 0.292571-0.658286 19.5291-40.8137 32.3291-41.0331l478.135 0.073143c20.8457 1.17029 55.4423 57.7829 57.7829 91.2823V696.539H1243.43ZM835.584 862.5737c-122.149-22.1623-189.44-81.4811-183.808-226.597l0.146286-671.671c236.105 90.9897 483.474 71.68 483.474 71.68l-0.365714 66.3406s0.365714 514.194 0.365714 793.454c-109.422-11.4834-205.824-16.3109-299.813-33.2069ZM59.904-123.61000000000001l475.794-0.146285c12.8731 0.365714 32.1829 41.0331 32.1829 41.1794-169.472 27.5017-338.213 55.0766-525.605 85.6503V769.609H0v-799.817c1.024-33.1337 38.6926-92.3794 59.9771-93.4034Zm535.333 88.064l0.146286 671.671C601.234 781.239 533.577 840.5577 411.575 862.6469 317.586 879.616 221.33 884.2971 111.762 896c0-279.186 0.365714-793.307 0.365714-793.307l-0.438857-66.2674c0.073143-0.219429 247.442 19.0171 483.474-71.9726Zm82.8709-50.4686v0.731429-0.731429Z"  horiz-adv-x="1243" />

    
    <glyph glyph-name="car" unicode="&#58905;" d="M906.973 459.644l-79.161 202.176c-14.895 38.512-47.169 71.394-108.082 71.394h-111.811c0 0-36.308 84.67-54.955 84.67h-80.64c-18.646 0-54.956-84.67-54.956-84.67h-113.123c-60.842 0-93.117-32.882-107.988-71.394l-79.185-202.176c-31.407-3.987-86.972-40.481-86.972-109.532v-257.222h89.059v-64.053c0-101.181 120.538-100.009 120.538 0v64.053h544.606v-64.053c0-100.009 120.538-101.181 120.538 0v64.053h89.06v257.222c0.025 69.05-55.566 105.545-86.926 109.532zM223.956 248.625c-37.715 0-68.324 31.171-68.324 69.659 0 38.512 30.609 69.683 68.324 69.683 37.716 0 68.301-31.171 68.301-69.683 0-38.489-30.585-69.659-68.301-69.659zM199.024 464.382l59.6 156.439c7.458 22.329 18.624 38.512 44.752 38.77h417.315c26.011-0.257 37.199-16.442 44.658-38.77l59.622-156.439h-625.947zM800.064 248.625c-37.717 0-68.3 31.171-68.3 69.659 0 38.512 30.586 69.683 68.3 69.683 37.763 0 68.348-31.171 68.348-69.683 0-38.489-30.585-69.659-68.348-69.659z"  horiz-adv-x="1024" />

    
    <glyph glyph-name="quanbu1" unicode="&#59073;" d="M488.155429 362.34971399999995v-272.896a68.242286 68.242286 0 0 0-68.242286-68.242285H215.259429a68.242286 68.242286 0 0 0-68.242286 68.242285V294.03428599999995c0 37.741714 30.500571 68.242286 68.242286 68.242285h272.822857z m318.390857 0c37.668571 0 68.242286-30.500571 68.242285-68.242285v-204.653715a68.242286 68.242286 0 0 0-68.242285-68.242285H601.965714a68.242286 68.242286 0 0 0-68.242285 68.242285V362.34971399999995h272.896zM419.913143 748.982857c37.668571 0 68.242286-30.500571 68.242286-68.242286v-272.822857H215.259429a68.242286 68.242286 0 0 0-68.242286 68.169143V680.740571c0 37.741714 30.500571 68.242286 68.242286 68.242286H419.84z m284.306286 0a170.569143 170.569143 0 1 0 0-341.138286 170.569143 170.569143 0 0 0 0 341.138286z"  horiz-adv-x="1024" />

    
    <glyph glyph-name="taopiaopiao-copy" unicode="&#59763;" d="M629.390222 727.836444C559.189333 746.439111 537.6 839.111111 406.385778 839.111111c47.502222-54.556444 25.6-102.456889-10.069334-113.436444C222.435556 679.253333 92.017778 532.736 100.266667 330.211556 108.771556 121.74222199999997 286.862222-14.222221999999988 517.063111-14.222221999999988c230.172444 0 408.291556 135.964444 416.768 344.433778 8.391111 205.767111-126.350222 353.706667-304.440889 397.624888z m245.589334-287.402666c-0.056889-0.995556-1.052444-6.257778-6.257778-7.594667-0.256-0.056889-0.483556-0.170667-0.711111-0.284444-6.741333-3.015111-16.952889-11.491556-20.565334-35.470223-1.336889-10.837333-3.527111-22.158222-5.888-34.304l-0.028444-0.142222c-6.712889-34.56-17.436444-63.260444-31.914667-85.333333-20.252444-30.805333-47.786667-47.985778-79.644444-49.664-23.210667-1.194667-42.752-1.28-59.733334-0.199111-49.066667 3.072-77.198222 15.786667-97.109333 43.918222-26.823111 37.831111-39.054222 106.581333-54.983111 106.581333s-28.16-68.750222-54.954667-106.581333c-19.911111-28.131556-48.071111-40.846222-97.137777-43.918222a524.8 524.8 0 0 0-59.733334 0.199111c-31.857778 1.678222-59.363556 18.858667-79.644444 49.692444-14.449778 22.044444-25.173333 50.744889-31.886222 85.304889l-0.028445 0.142222a509.44 509.44 0 0 0-5.888 34.304c-3.612444 23.978667-13.852444 32.455111-20.565333 35.470223-0.256 0.113778-0.483556 0.227556-0.711111 0.284444-5.233778 1.308444-6.200889 6.599111-6.257778 7.594667-0.625778 9.699556-3.043556 31.317333-3.868445 44.8a9.927111 9.927111 0 0 0 9.216 11.491555c57.941333 3.640889 192.341333 10.865778 253.44-5.091555 18.261333-4.778667 70.485333-14.677333 98.019556-14.677334 27.562667 0 79.758222 9.898667 98.019556 14.677334 61.098667 15.957333 195.527111 8.732444 253.44 5.12 1.592889-0.113778 9.870222-1.422222 9.244444-11.52-0.853333-13.482667-3.242667-35.100444-3.868444-44.8zM405.333333 444.416l-4.323555 0.853333c-21.76 4.067556-66.133333 9.671111-100.437334 7.537778-15.132444-0.967111-28.273778-3.413333-36.693333-8.192-20.906667-11.804444-22.613333-30.407111-19.086222-55.352889 1.024-7.253333 2.474667-15.047111 4.039111-23.352889 8.334222-44.544 28.074667-91.932444 69.176889-94.321777 18.432-1.080889 33.564444-1.137778 46.136889-0.341334 38.542222 2.417778 52.451556 12.913778 62.037333 27.136 54.784 81.408 33.137778 134.883556-20.849778 146.033778z m367.104 0.199111c-8.419556 4.778667-21.589333 7.224889-36.693333 8.192-34.332444 2.161778-78.677333-3.470222-100.408889-7.537778l-4.380444-0.853333c-53.959111-11.150222-75.633778-64.625778-20.821334-146.033778 9.585778-14.222222 23.466667-24.718222 62.037334-27.136 12.515556-0.796444 27.676444-0.739556 46.136889 0.341334 41.073778 2.389333 60.814222 49.777778 69.176888 94.321777 1.564444 8.305778 3.015111 16.099556 4.039112 23.324445 3.527111 24.974222 1.820444 43.576889-19.057778 55.381333z"  horiz-adv-x="1024" />

    
    <glyph glyph-name="meifa-copy" unicode="&#59764;" d="M929.792 53.24800000000005q19.456 11.264 36.352 6.656t29.184-18.432 19.456-33.792 7.168-40.448-7.68-37.888-24.064-25.6q-2.048-8.192-28.672-15.36-22.528-6.144-71.68-11.264t-140.288-4.096q-6.144-1.024-26.624-0.512t-47.104 5.12-55.808 15.36-52.736 29.696-37.888 48.64-11.264 72.704q-3.072 15.36-9.728 31.744t-6.144 38.4 14.336 51.2 53.76 69.12q15.36 25.6 11.264 45.056-3.072 17.408-24.064 30.72t-76.288 13.312q-58.368 4.096-94.208 27.648-15.36 10.24-28.16 25.088t-17.92 37.376-1.536 52.224 20.992 68.608q5.12 34.816-6.144 59.392-5.12 10.24-13.312 18.944t-21.504 14.336-32.768 6.656-47.104-5.12q2.048-10.24 2.048-23.552 0-11.264-1.024-28.672t-6.144-39.936q-6.144-23.552-10.752-40.448t-12.288-30.208-21.504-25.6-39.424-26.624q1.024-3.072 4.096-7.168 5.12-7.168 14.336-12.288 11.264-5.12 26.112-9.216t17.92-12.288q2.048-4.096 0-9.216t-4.608-10.752-4.608-10.752-1.024-8.192q2.048-6.144 6.144-7.168t4.096-3.072q-1.024 0-2.048-1.024-2.048-2.048-3.072-4.096-3.072-6.144-1.536-9.216t3.584-5.12 5.12-4.608 3.072-7.68q-5.12-22.528-2.048-40.96 2.048-15.36 11.776-29.696t33.28-16.384l174.08 0q25.6-49.152 35.84-101.376 4.096-22.528 4.608-47.104t-4.608-50.688-16.896-51.712-33.28-50.176q-31.744-18.432-69.632-25.6-32.768-6.144-76.288-3.072t-94.72 28.672q-20.48-14.336-37.888-13.312-15.36 0-29.696 14.848t-22.528 57.856q-25.6 26.624-29.696 50.176-2.048 10.24 0.512 20.48t12.8 19.456 28.672 17.408 48.128 13.312q25.6 16.384 29.696 34.816 4.096 16.384-13.312 37.888t-76.8 48.128q-58.368 35.84-78.848 84.992-9.216 20.48-10.752 46.08t9.728 56.32 37.376 66.56 73.216 75.776q11.264 8.192 18.432 20.48 6.144 11.264 10.24 28.16t1.024 41.472q-27.648 52.224-29.696 99.328-1.024 19.456 3.584 40.448t17.92 39.936 36.864 34.304 61.44 25.6q26.624 18.432 53.248 25.6 23.552 6.144 49.664 3.072t47.616-28.672q55.296 21.504 109.568 27.648 22.528 3.072 47.616 2.048t50.176-7.168 48.128-18.432 43.52-33.792q63.488-3.072 111.616-41.984 20.48-16.384 39.424-42.496t33.28-64.512 21.504-90.624 4.096-120.832q67.584-66.56 98.304-131.072 13.312-27.648 19.456-57.856t0.512-59.904-26.624-58.368-61.952-53.248q-26.624-3.072-46.08-14.336-17.408-9.216-31.744-27.136t-12.288-48.64q-1.024-17.408 4.096-29.696 5.12-11.264 17.408-20.48t38.912-10.24q6.144 7.168 9.216 12.288 2.048 5.12 1.024 9.728t-10.24 8.704q-5.12 14.336-3.072 26.624 1.024 11.264 8.192 20.48t24.576 12.288q-1.024 0 0.512 0.512t-0.512-0.512z"  horiz-adv-x="1024" />

    
    <glyph glyph-name="xindian-copy" unicode="&#59765;" d="M26.423185 467.528619c0-51.782506 38.748826-94.896964 91.085841-107.405034v-365.526439H56.811021c-16.696693 0-30.387836-12.401503-30.387836-27.859129 0-15.361897 13.595414-27.859129 30.387836-27.859129h910.377958c16.794229 0 30.387836 12.401503 30.387836 27.859129s-13.490653 27.859129-30.387836 27.859129h-60.688974V360.12358500000005c52.257541 12.410534 91.07681 55.620722 91.07681 107.307498V495.290212H26.518914v-27.761593h-0.095729z m606.920445-111.337174c67.099247 0 121.376142 49.815533 121.376141 111.241444 0-51.782506 38.748826-94.896964 91.094873-107.403227v-365.528246H390.571478V356.19144500000004c67.099247 0 121.394204 49.815533 121.394204 111.241444 0-61.330182 54.383462-111.241444 121.377948-111.241444z m-273.159988 3.93214v-365.526439H178.100464V360.12358500000005c52.24851 12.410534 91.094872 55.620722 91.094872 107.307498-0.001806-51.68497 38.730764-94.799429 90.988306-107.307498zM876.095913 745.641261H147.799326L26.423185 523.158372h971.068738l-121.39601 222.482889z m-593.306969-61.821474L222.092745 572.578343c-2.712942-4.927367-8.053933-7.685464-13.595414-7.685464-2.230681 0-4.557092 0.395562-6.701074 1.475681-7.474136 3.451685-10.58264 11.812675-6.79861 18.611286l60.688974 111.241444c3.794867 6.89434 12.822352 9.652437 20.305519 6.296481 7.569866-3.440848 10.48691-11.812675 6.796804-18.697984z m121.377948 0l-60.688974-111.241444c-2.721973-4.927367-8.061157-7.685464-13.595414-7.685464-2.230681 0-4.567929 0.395562-6.710105 1.475681-7.465105 3.451685-10.573609 11.812675-6.780548 18.611286l60.688974 111.241444c3.776805 6.89434 12.910857 9.652437 20.287457 6.296481 7.571672-3.440848 10.48691-11.812675 6.79861-18.697984z m122.940328-105.040693c0-7.676433-6.79861-13.886215-15.141538-13.886215-8.36099 0-15.1596 6.209783-15.1596 13.886215v111.241445c0 7.676433 6.79861 13.877184 15.1596 13.877184 8.431432 0 15.141538-6.200751 15.141538-13.877184v-111.241445z m174.320046-12.208237a16.386023 16.386023 0 0 0-7.396469-1.773707c-5.339185 0-10.591671 2.564832-13.295581 7.185141l-66.432752 111.250475c-3.968264 6.789579-1.264354 15.25533 6.025548 18.804551 7.185141 3.740681 16.597351 1.273385 20.585483-5.516194l66.416496-111.241445c3.98452-6.596313 1.367308-15.06387-5.902725-18.708821z m120.778283-0.298026a15.867638 15.867638 0 0 0-6.780548-1.475681c-5.550512 0-10.889697 2.855633-13.508715 7.676432l-60.688974 111.250476c-3.794867 6.787773-0.666495 15.25533 6.710105 18.600448 7.378407 3.451685 16.599157 0.693588 20.375962-6.296481l60.70523-111.250476c3.690106-6.692043 0.774868-15.062064-6.81306-18.504718zM284.335068 157.33210099999997v64.086473c-8.940786 4.920142-15.141538 13.384086-15.141538 23.527814 0 15.352865 13.595414 27.860935 30.387836 27.860936 16.810485 0 30.405898-12.50807 30.405899-27.860936 0-10.239458-6.217007-18.705209-15.1596-23.62535v-64.095504c8.940786-4.918336 15.1596-13.384086 15.1596-23.625351 0-15.36009-13.508715-27.859129-30.405899-27.859129-16.703918 0-30.387836 12.401503-30.387836 27.859129 0 10.3388 6.307318 18.804551 15.141538 23.731918zM147.799326 801.261983c0 15.36009 13.604445 27.859129 30.405899 27.859129h667.607613c16.792422 0 30.283076-12.497232 30.283075-27.859129 0-15.352865-13.490653-27.859129-30.38603-27.859129H178.100464c-16.696693 0.097536-30.301138 12.50807-30.301138 27.859129z"  horiz-adv-x="1024" />

    
    <glyph glyph-name="sousuo" unicode="&#58898;" d="M940.0211-54.8334l-192.2277 192.2197c52.7794 64.934 84.4193 147.7418 84.4193 237.9407 0 208.4996-169.0295 377.522-377.5379 377.522S77.1349 583.8266 77.1349 375.3269s169.0295-377.522 377.5379-377.522c90.2036 0 173.015 31.6385 237.9517 84.4168l192.2267-192.2207c15.2343-15.2337 39.9336-15.2337 55.1679 0C955.2555-94.7653 955.2555-70.0681 940.0211-54.8334zM156.6164 375.3269c0 164.6054 133.4461 298.0439 298.0564 298.0439 164.6123 0 298.0564-133.4385 298.0564-298.0439 0-78.3909-30.2797-149.6975-79.7623-202.9044-3.149-1.7338-6.1141-3.9253-8.7834-6.5945-2.6703-2.6702-4.8619-5.6352-6.5958-8.785-53.2092-49.4815-124.5198-79.7599-202.9139-79.7599C290.0625 77.283 156.6164 210.7215 156.6164 375.3269z"  horiz-adv-x="1000" />

    
    <glyph glyph-name="yuyin" unicode="&#58944;" d="M511.998465 255.999744c106.048291 0 191.999872 85.951581 191.999872 191.999872l0 256.000512c0 106.016569-85.951581 191.999872-191.999872 191.999872-106.048291 0-191.999872-85.983303-191.999872-191.999872l0-256.000512C319.998593 341.952348 405.981896 255.999744 511.998465 255.999744L511.998465 255.999744zM863.998401 431.648207c0 0.064468 0 0.158612 0 0.255827 0 0.063445 0 0.063445 0 0.128937 0 26.526143-21.503756 48.000224-48.000224 48.000224-26.496467 0-48.000224-21.474081-48.000224-48.000224l0 0c-0.064468-141.375891-114.624621-255.936043-255.999488-256.000512-141.376914 0.064468-255.936043 114.624621-256.000512 256.000512l0 0c0 26.526143-21.472034 48.000224-47.998177 48.000224-26.529213 0-48.000224-21.474081-48.000224-48.000224 0-0.065492 0-0.065492 0-0.128937 0-0.063445 0-0.160659 0-0.255827 0-177.982624 132.383076-324.703243 303.999712-348.031555l0-115.616204L303.998177-31.999552c-26.529213 0-48.000224-21.502733-48.000224-47.999201s21.471011-48.001247 48.000224-48.001247l416.001599 0c26.494421 0 47.998177 21.502733 47.998177 47.999201 0 26.496467-21.503756 48.000224-47.998177 48.000224L559.998689-32.000576 559.998689 83.616652C731.646024 106.944963 863.998401 253.664559 863.998401 431.648207L863.998401 431.648207z"  horiz-adv-x="1024" />

    
    <glyph glyph-name="yuyin1" unicode="&#58899;" d="M510.491667 169.345133a210.067257 210.067257 0 0 0-212.389381 207.858407V683.610619a212.446018 212.446018 0 0 0 424.778761 0v-306.407079A210.80354 210.80354 0 0 0 510.491667 169.345133z m-339.823009 220.884955a32.849558 32.849558 0 1 0 65.699115 0 274.237168 274.237168 0 1 1 548.247787 0 32.849558 32.849558 0 1 0 65.699115 0 346.732743 346.732743 0 0 0-306.407079-347.18584v-103.079646h141.59292a33.472566 33.472566 0 0 0 32.849558-33.982301 33.982301 33.982301 0 0 0-32.849558-33.982301H334.916445a33.982301 33.982301 0 0 0-32.849557 33.982301 33.472566 33.472566 0 0 0 32.849557 33.982301h142.159292v103.079646A346.279646 346.279646 0 0 0 170.668658 390.230088z"  horiz-adv-x="1024" />

    
    <glyph glyph-name="xingtaiduICON_sousuo--" unicode="&#58900;" d="M369.75373212 526.19591969A158.88634984 158.88634984 0 0 1 325.98855439 384c9.46546265 42.95960643 31.71936954 84.93742286 66.38410909 119.62733652C427.06257714 538.3298372300001 469.04039357 560.57115705 512 570.03661972c-49.97059406 9.41511445-103.59143303-5.17327812-142.24626788-43.84070003zM746.74850863 231.52045932l-59.83884237 59.83884236a58.02630697 58.02630697 0 0 1-45.62806132 16.77853952c56.27670682 81.4004614 48.14547161 193.91611389-24.33077036 266.40494291-81.58926717 81.61444129-213.90435151 81.61444129-295.51879279 0-81.58926717-81.61444129-81.58926717-213.94211267 0-295.55655394 72.47624197-72.48882902 184.90378508-80.55712897 266.3545947-24.28042216-1.25870513-16.36316682 4.35511978-33.2046416 16.77853951-45.62806133l59.83884237-59.85142942c22.65669253-22.60634432 59.67521069-22.60634432 82.28155501 0 22.71962777 22.60634432 22.71962777 59.63744953 0.06293525 82.29414207zM592.68299949 303.31700050999996c-68.18405745-68.18405745-178.67319463-68.18405745-246.83207798 0-68.18405745 68.18405745-68.18405745 178.69836875 0 246.8824262 68.15888333 68.18405745 178.64802053 68.18405745 246.83207798 0 68.17147039-68.13370922 68.17147039-178.69836875 0-246.8824262z"  horiz-adv-x="1024" />

    
    <glyph glyph-name="yuyin1-copy" unicode="&#59373;" d="M510.491667 169.34513300000003a210.067257 210.067257 0 0 0-212.389381 207.858407V683.610619a212.446018 212.446018 0 0 0 424.778761 0v-306.407079A210.80354 210.80354 0 0 0 510.491667 169.34513300000003z m-339.823009 220.884955a32.849558 32.849558 0 1 0 65.699115 0 274.237168 274.237168 0 1 1 548.247787 0 32.849558 32.849558 0 1 0 65.699115 0 346.732743 346.732743 0 0 0-306.407079-347.18584v-103.079646h141.59292a33.472566 33.472566 0 0 0 32.849558-33.982301 33.982301 33.982301 0 0 0-32.849558-33.982301H334.916445a33.982301 33.982301 0 0 0-32.849557 33.982301 33.472566 33.472566 0 0 0 32.849557 33.982301h142.159292v103.079646A346.279646 346.279646 0 0 0 170.668658 390.230088z"  horiz-adv-x="1024" />

    
    <glyph glyph-name="wode-copy" unicode="&#58893;" d="M834.818 169.945l-172.131 67.078c0 0-32.818 12.748-45.567 25.279-8.198 8.059-7.612 27.066-0.354 51.347 7.252 24.276 95.483 122.939 95.483 212.561 0 138.434-90.985 250.658-203.233 250.658-112.237 0-203.229-112.224-203.229-250.658 0-85.842 78.624-188.174 88.332-206.773 9.713-18.604 7.35-46.946-0.31-55.537-11.517-12.903-53.575-25.833-53.575-25.833l-155.175-69.165c-36.253-13.015-64.652-47.206-64.652-85.79v-18.289c0-42.1 34.191-67.859 76.212-67.859h626.649c42.028 0 76.212 25.759 76.212 67.859v18.289c0 38.582-28.399 73.817-64.656 86.833v0 0zM823.258 33.402h-626.643c-14.005 0-38.756 24.659-38.018 49.711 0.743 25.056 21.034 38.32 37.252 44.141l154.153 68.121c0 0 52.262 14.509 71.284 39.862 17.765 23.684 17.694 46.33 14.055 67.67-4.988 29.195-4.589 36.573-22.471 58.21-17.789 21.52-71.212 97.761-71.212 164.935 0 108.329 79.648 214.192 167.479 214.192 87.83 0 168.516-105.863 168.516-214.192 0-70.133-57.831-135.892-75.762-166.338-19.599-33.275-22.752-47.722-24.228-61.49-1.474-13.773-2.383-45.705 8.853-62.989 11.235-17.284 59.005-34.779 59.005-34.779l172.14-67.077c16.218-5.826 44.927-29.53 45.452-51.302 0.533-21.777-25.852-48.676-39.857-48.676v0 0z"  horiz-adv-x="1024" />

    
    <glyph glyph-name="arrDnR-fill" unicode="&#59255;" d="M311.4411187446978 192.66452280215503l395.49178416318074 6.58652819784944e-14-6.58652819784944e-14 394.2933705573784z"  horiz-adv-x="1024" />

    
    <glyph glyph-name="wode1" unicode="&#58895;" d="M927 51.299999999999955c-13.2 22.7-32.2 42.2-56.7 58.2-29.6 19.2-67.3 33.3-112 41.5-0.3 0.2-0.5 0.2-0.8 0.2-0.4 0.1-34.1 4.7-68.7 13.8-60.2 15.9-65.6 29.9-65.6 30-0.4 1.4-0.9 2.7-1.5 4-0.5 2.6-1.7 12.5 0.6 38.8 5.9 67 40.8 106.6 68.9 138.4 8.8 10.1 17.2 19.5 23.6 28.9 17.4 26.1 27.9 56.3 30.5 87.6 0.2 5.3-0.5 10.6-2.1 15.7-2.7 8.8-7.8 14.2-11.5 18.2l-2.6 2.8c-0.3 0.3-1 1.2-0.3 5.7 2.2 14.5 3.8 29.1 4.6 43.8 1.3 23.6 2.3 58.9-3.7 93.3-0.7 5.8-1.9 12.1-3.8 19.5-6.3 23.6-16.3 43.9-29.9 60.1l-0.4 0.5c-2.5 2.8-60.8 65.9-230.1 78.9-23.5 1.8-46.6 0.8-68.2-0.3l-1.2-0.1c-5.5-0.2-13-0.6-20-2.5-17.5-4.6-22.2-16.2-23.4-22.5-1.3-8.3 0.1-16.8 3.9-24.2l1-2.5c-4.7-7.2-10.5-13.7-17.2-19.1l-0.2-0.2c-1.8-1.5-44.3-39.2-46.7-88.3-6.3-45.2-5.8-91.1 1.6-136.2 0.4-2.3 1-5.6 1-6.9-0.2-0.2-0.3-0.4-0.5-0.5l-0.5-0.4c-8-7.4-17.1-15.8-17.1-33.9 2.5-31.6 12.9-62.1 30.5-88.5 6.5-9.3 14.8-18.8 23.6-28.8 28.1-31.9 62.9-71.5 68.9-138.5 2.3-26.3 1.2-36.2 0.6-38.8-0.7-1.3-1.2-2.6-1.5-4 0-0.2-5.2-14.2-65.2-29.9-34.6-9.2-68.6-13.8-69-13.8-0.2 0-0.4 0-0.6-0.1-44.3-7.7-81.7-21.3-111.3-40.5-24.5-15.9-43.6-35.5-56.8-58.4-13.7-22.9-20.7-49.2-20.4-75.9v-21.8c0-4.8 1.9-9.4 5.4-12.8 3.4-3.4 8.1-5.3 12.9-5.2h833.4c10.1 0 18.2 8.2 18.2 18.2v21.6c0.3 6.4 1.1 38.9-19.7 74.9z m-16.6-72.7l-0.1-1.7v-4.2H113.2v4.2c-0.3 20.1 5 39.9 15.4 57.2 11.2 18.7 26.7 34.5 45.2 46.2 25.4 16.5 58.2 28.3 97.4 35.2 4.1 0.5 37.6 5.4 72.9 14.6 68.6 18.1 85.3 38.1 90.3 52.7 3.8 7.5 6 22.5 2.8 58.2-6.9 78.9-47.9 125.4-77.8 159.3-8.5 9.6-15.8 17.9-21 25.5-20.5 29.5-23.6 64.2-24 68.3 0.1 1.2-1.4-0.4 0.2 1.5 1.6 1.9 3.3 3.7 5.2 5.3l0.4 0.4c15.7 14.5 12.5 31 10.5 40.9-6.7 41.1-7.1 83-1.3 124.2 0.2 0.8 0.3 1.7 0.3 2.5 1.1 33.3 32.7 62.3 34.2 63.6 7.9 6.8 16.8 15 23.3 25.4 2.4 3.6 4.3 7.6 5.6 11.8 3 10.2 0.1 18.7-2.3 24.3 2.7 0.3 5.6 0.5 7.3 0.5l1.2 0.1c21.2 1.5 42.4 1.6 63.6 0.4 44.2-3.5 108-12.8 161.3-38.1 29.5-14.2 42.8-27.1 44.4-28.8 10.7-13.5 18.3-29.1 22.3-45.8 1.4-4.9 2.4-9.9 3.1-15l0.2-0.9c5.4-30.9 4.4-63.6 3.2-85.6-0.6-12.1-2-24.9-4.3-40.4-2.5-12.1 0.6-24.7 8.4-34.2l4-4.5c1.5-1.6 3.2-3.3 3.4-4.1 0.3-1.1 0.4-2.3 0.4-3.5-0.3-4.2-3.3-38.5-24-68.5-5.2-7.5-12.6-15.8-21.1-25.4-29.9-33.9-70.8-80.3-77.7-159.2-3.2-35.9-1-50.8 2.8-58.3 5.1-14.5 21.8-34.6 90.3-52.6 24-6.2 48.3-11.1 72.8-14.6 39-7.3 71.6-19.2 96.9-35.4 18.4-11.3 34-26.8 45.4-45.2 17.5-28.8 16-54.8 16-56.3z"  horiz-adv-x="1024" />

    
    <glyph glyph-name="Icon_wode" unicode="&#58896;" d="M852.78800001-13.741999999999962H149.18600001c-18.204 0-36.409 9.102-48.24200001 22.755l-0.91 0.91000001c-11.833 16.385-15.474 35.5-10.92299999 52.79299999 37.32 189.327 193.878 333.142 380.47299999 348.61600001 4.551 0.91 8.192 1.82 11.833 1.81999999h34.589l-4.55199999-45.511H493.25c-7.282 0-10.923 0-16.38399999-1.82h-2.73000001C305.743 353.98700001 164.66 224.73500001000002 131.891 52.70300000999998c-0.91-4.551-0.91-10.923 3.64-15.474l0.91000001-1.82000001c2.732-3.641 7.283-5.462 12.744-5.462h704.512c5.461 0 10.012 1.82 12.743 5.462 4.551 5.461 5.461 10.922 4.55099999 17.29400001-20.935 112.868-89.202 208.44-185.68499999 263.05399999l-0.91000001 0.91000001c-7.282 4.552-16.384 9.103-24.576 13.65399999-2.731 1.82-5.462 2.73-8.19199999 4.55000001l-12.743 5.46199999 18.20399999 40.96000001 12.743-5.46100001c9.102-3.641 18.205-9.102 26.397-12.74299999l10.922-5.46200001c109.227-61.895 184.775-169.3 209.351-294.912 4.551-18.204 0-37.319-13.653-53.703-12.743-14.563-31.858-22.755-50.06199999-22.755zM505.993 381.294c-114.688 0-209.351 94.663-209.35099999 209.35100001S391.30500001 799.996 505.993 799.996s209.351-94.663 209.351-209.35-95.573-209.352-209.35-209.352z m0 385.93400001c-98.304 0-176.583-79.189-176.58299999-176.583s79.19-176.583 176.58299999-176.583 176.583 79.19 176.583 176.583-79.19 176.583-176.583 176.583zM505.993 376.74300000000005c-118.329 0-213.902 95.573-213.902 213.90200001S387.664 804.54800001 505.993 804.54800001s213.902-95.574 213.90200001-213.903-96.483-213.902-213.90200001-213.90200001z m0 418.702c-112.867 0-204.8-91.932-204.8-204.79999999s91.933-204.8 204.8-204.80000001 204.8 91.933 204.8 204.80000001-91.932 204.8-204.8 204.79999999z m0-385.93399999c-100.124 0-181.134 81.01-181.134 181.134s81.01 181.135 181.134 181.13499999c100.125 0 181.134-81.01 181.134-181.13499999s-81.92-181.134-181.134-181.134z m0 353.166c-94.663 0-172.032-77.369-172.032-172.032 0-94.663 77.369-172.032 172.032-172.032s172.032 77.37 172.03200001 172.032c0 94.663-77.369 172.032-172.03200001 172.032zM226.555 137.35500000000002c-1.82 0-4.551 0.91-6.372 1.82000001-6.371 3.641-9.102 11.833-5.461 18.20499999 80.1 155.648 253.952 184.775 261.234 185.685 7.282 0.91 14.563-3.641 15.474-10.923 0.91-7.282-3.641-14.563-10.923-15.474-1.82 0-167.481-28.216-241.209-171.12099999-2.73-5.462-7.282-8.192-12.743-8.19200001z m-30.94799999-79.19c-7.281 0-13.653 6.372-13.653 13.65400001 0 26.396 17.294 54.613 20.025 57.34399999 3.64 6.371 12.743 8.192 19.11499999 4.55 6.371-3.64 8.192-12.742 4.55-19.11399999-4.55-6.371-15.473-27.307-15.473-42.78-0.91-7.282-6.372-13.654-14.56399999-13.65400001z"  horiz-adv-x="1024" />

    
    <glyph glyph-name="wode2" unicode="&#58897;" d="M509.547 767.85c48.512 0 116.245-10.73 163.434-61.802 37.291-40.384 55.531-99.67 54.23-176.235-0.427-24.341 12.224-47.296 32.448-59.498 2.944-2.774 9.493-18.966 3.413-44.054-5.333-22.229-17.536-32.981-20.416-34.048-23.424-3.2-43.243-17.984-53.077-39.445-19.2-41.835-45.078-76.373-74.838-99.861a67.97 67.97 0 0 1-13.76-14.55c-11.925-17.045-30.741-50.666-22.954-84.522l3.008-12.246 6.656-9.856c11.2-16.49 29.077-27.242 49.045-29.504 17.493-1.962 79.424-9.962 140.843-30.122 36.65-12.011 67.05-26.24 90.368-42.283 23.509-16.192 39.338-33.984 46.912-52.31v-19.925H104.192v19.819c7.872 18.773 23.637 36.373 46.933 52.416 23.318 16.043 53.718 30.272 90.368 42.283 61.398 20.16 123.328 28.16 140.822 30.122 19.968 2.24 37.845 12.992 48.938 29.334l7.126 10.645 2.709 11.797c7.744 33.686-11.093 67.307-23.019 84.352-3.84 5.504-8.469 10.368-13.696 14.507-29.802 23.53-55.68 58.07-74.858 99.883-9.856 21.504-29.718 36.245-52.374 39.296-3.605 1.237-15.808 11.989-21.162 34.218-6.059 25.088 0.49 41.28 2.88 43.67 20.778 12.586 33.429 35.541 33.002 59.882-1.301 76.566 16.939 135.851 54.251 176.256 47.19 51.051 114.923 61.782 163.435 61.782m0 64c-61.291 0-147.563-14.294-210.432-82.39-48.875-52.885-72.811-127.146-71.211-220.736 0.021-1.664-0.81-3.221-2.219-4.074-30.336-18.411-43.712-64.448-31.914-113.387 10.773-44.672 41.13-77.952 73.984-82.475a4.632 4.632 0 0 0 3.584-2.688c23.445-51.072 55.594-93.589 93.376-123.434 0.362-0.278 0.682-0.576 0.938-0.982 7.702-10.986 14.678-26.325 13.078-33.322-0.043-0.235-0.171-0.448-0.32-0.683-0.726-1.067-1.942-1.664-3.2-1.813-22.955-2.582-87.744-11.264-153.664-32.896-42.432-13.952-78.336-30.891-106.688-50.411-36.48-25.11-60.95-54.784-72.704-88.277l-0.086-0.214c-1.237-3.733-1.856-7.53-1.856-11.264v-49.6c0-21.845 17.728-39.573 39.595-39.573h859.499c21.866 0 39.573 17.728 39.573 39.573v49.6c0 3.755-0.619 7.552-1.856 11.264l-0.085 0.214c-11.755 33.472-36.224 63.168-72.704 88.277-28.352 19.52-64.256 36.459-106.688 50.41-65.92 21.633-130.71 30.315-153.664 32.897-1.259 0.149-2.454 0.746-3.179 1.813-0.15 0.235-0.277 0.448-0.32 0.683-1.621 6.976 5.376 22.336 13.056 33.322a4.12 4.12 0 0 0 0.939 0.982c37.781 29.845 69.93 72.384 93.376 123.434a4.632 4.632 0 0 0 3.584 2.688c32.853 4.523 63.21 37.803 74.005 82.475 11.797 48.96-1.579 94.976-31.915 113.387-1.408 0.853-2.24 2.41-2.218 4.074 1.6 93.59-22.336 167.83-71.211 220.736-62.89 68.096-149.163 82.39-210.453 82.39"  horiz-adv-x="1024" />

    
    <glyph glyph-name="ds" unicode="&#59372;" d="M514.483333 886.55c278.6125 0 504.558333-225.941667 504.558334-504.558333 0-17.716667-0.945833-35.2-2.716667-52.4375H12.520833a513 513 0 0 0-2.6 52.4375c0 278.616667 225.825 504.558333 504.5625 504.558333zM18.1875 290.104167l278.383333-0.2375 10.745834 12.875h409.720833l11.570833-12.754167h281.925l-4.958333-23.979167h-73.466667l-20.783333-25.983333h-297.395833l-19.370834 22.679167-72.6375 0.116666-18.1875-22.795833-266.808333 0.120833-19.25 22.558334H24.2125zM994.704167 227.625H34.133333l9.566667-27.045833H227.833333l19.366667-22.558334h230.429167l18.191666 22.558334h489.558334zM71.929167 139.395833l9.8-17.120833 372.516666 0.116667 32.479167-30.470834h282.754167l19.604166 30.470834h158.145834l11.1 19.366666-287.475 0.120834-15.825 16.770833H396.370833l-15.116666-19.133333zM140.666667 43.375l20.666666-21.491667h454.833334l29.529166-27.05h192.041667c18.425 14.883333 35.320833 30.945833 50.433333 48.541667h-68.7375l-28.35 28.345833h-252.041666l-18.1875-28.345833H140.666667zM226.295833-32.2125l197.358334 0.1125 15.354166-19.4875 149.995834-0.116667 25.158333 19.604167h188.266667c-192.045833-120.7-384.091667-120.7-576.133334-0.1125z"  horiz-adv-x="1024" />

    
    <glyph glyph-name="yumaoqiu1" unicode="&#58890;" d="M235.3 165.29999999999995c-4.9 0-9.8 1.5-14.1 4.6-10.7 7.8-13.1 22.8-5.4 33.5l322.4 442.8c7.8 10.7 22.8 13.1 33.5 5.3s13.1-22.8 5.4-33.5L254.8 175.20000000000005c-4.7-6.4-12-9.9-19.5-9.9zM319.3 83.5c-7.5 0-14.8 3.4-19.6 9.9-7.9 10.8-5.6 26 5.2 33.9l441.2 323.3c10.8 7.9 26 5.6 33.9-5.2 7.9-10.8 5.6-26-5.2-33.9L333.6 88.10000000000002c-4.3-3.1-9.3-4.6-14.3-4.6zM950.7 371.79999999999995l-42.5 52a46.89 46.89 0 0 1-34 17l-93 4 24.7 110c3.5 15.7-1.1 31.8-12.5 43.2l-69.9 69.9c-11.6 11.6-28.6 16.2-44.5 12.2l-106.8-27.4-9.2 100.5c-1.3 13.4-8.2 25.6-19.1 33.5l-50.7 36.8c-11.6 8.4-26.2 11-40 7.1L391 813c-14.7-4.1-26.4-15.2-31.4-29.6L173.1 242.70000000000005 99.4 169C49 118.60000000000002 51 34.60000000000002 103.8-18.299999999999955l5.1-5.1c27.3-27.3 62.8-41 97.8-41 32.9 0 65.1 12.1 89.5 36.5l74.1 74.1 534 196.3c11.6 4.3 20.8 12.8 26.1 23.9l26.4 56c7.6 16.2 5.2 35.6-6.1 49.4zM262 6.2999999999999545c-15-15-34.9-22.4-55.3-22.4-22.5 0-45.7 9.1-63.5 26.9l-5.1 5.1c-34 34-36 87.3-4.5 118.8l60.6 60.7L322.6 67 262 6.2999999999999545z m625 281.3L365.4 95.79999999999995 222.9 238.29999999999995l182.3 528.3 60.4 17.1 49.3-35.7 9.1-99.7c1.3-14.2 8.7-27 20.3-35.2 11.6-8.2 26.1-10.9 39.9-7.4l105.8 27 68.4-68.4-25-111.2c-3-13.5 0.1-27.5 8.5-38.5s21.2-17.6 35-18.2l94.4-4.1 41.3-50.4-25.6-54.3z"  horiz-adv-x="1024" />

    
    <glyph glyph-name="zhoubianyou11" unicode="&#58892;" d="M830 596c18.4-13.4 32.4-29.6 42.6-48.4l-11.8-20.2h20.8c9.6-25.6 13.6-55 13.6-86.8l-32.8 2.2 32-25.6c-1.2-20.8-4-42.4-8-64.8-43.4 33-78.8 56-107.4 76.2l-0.6 37-16.6-24.6c-28.2 21.2-48.6 40.6-62.8 67.4l20.6 48-32.6-19.6c-3.8 11.8-6.8 24.8-9.2 39.8-85-108.2-79.2-253-64.2-380.6 87.8-10.8 173.4-51 194.8-94.2l-11.8-11.2c-1.8-1.8-6.2-6-9.2-5.6-9.8 0.8-25.4 9.8-33.4 14.8l-35.8 21.8-36.2-21.4c-26.6-15.6-60.2-30.6-91.8-28-23.8 2-45.8 14-65.6 26.6l-38.8 24.6-38-25.4c-20.6-13.8-47.8-27.8-73.4-27.4-19.8 0.4-36.8 10-51.6 22.4L274 134.39999999999998 228.2 90c-7-6.8-19.8-17.6-30.6-17.4-12.4 0.4-29 12.8-38 20.4l-8.6 7.4c34.8 26.8 107.4 60.2 177 74.2 7.6 71.4 7.8 150.2-39 210-1.4-8.8-3.2-16.4-5.4-23.2l-19 11.4 12-28c-8.4-15.6-20.2-27-36.8-39.4l-9.8 14.4V298c-16.8-11.8-37.4-25.4-62.8-44.6-2.4 13-4 25.8-4.8 37.8l18.8 15-19.2-1.2c0 18.6 2.2 35.8 8 50.8h12l-6.8 11.8c6 11 14.2 20.6 25 28.4l3 11.6-14-12c-17 4-37.2 9.6-64 15 7 8.8 14.2 17 21.6 24.4l20.2-3.4-11.6 11.6c11.8 10.6 24.2 18.8 37 23.6l6.8-7.8 3.6 11c18 4.2 37 1.6 57.2-9.8 18.6 31.6 40.6 46.2 65.2 49l7.2-9.2 3.8 9.6c13.6-0.4 28-4 42.8-10l-7.2-14.8 17.8 10c9.4-4.4 18.8-9.8 28.4-15.8-22.2-13.2-38.8-24.8-53-34 10.2-3.2 19-8.4 26.4-15.4l-2.2-11.4 9.8 3.4c8.8-10.4 15.6-23.6 20.6-38.6l-15.8-4.4 19.4-6.8c2.8-10 5-20.6 7-31.8-26 8.4-46.4 13.4-63.2 18.2l-6.4 17.4-3.8-14.4c-6.2 0.2-13.4 3-20.8 7.4 35.2-55 45.2-118.2 46-187.4 26.4 0.8 50.6-2.8 70-12.2 19.4 12.8 42.6 21 67.8 25.4-1.8 131.8 12.6 251.6 78.4 354.8-12.6-7.6-25-12.4-35.6-12.6l-6.4 24.4-10.8-29.6c-28.6-8.2-63.6-16.8-107.8-31 3.2 19 7 37.2 11.8 54.4l33 11.6-27 7.4c8.8 25.6 20.4 48.2 35.4 66l16.8-5.8-3.8 19.6c12.8 11.6 27.8 20.6 45.2 26.2-24.2 15.6-52.8 35.4-90.6 58 16.4 10.2 32.6 19.4 48.6 27l30.4-17.2-12.2 25.2c25.2 10.4 49.6 16.4 73 17l6.6-16.4 12.2 15.6c41.8-4.6 79.6-29.6 111.2-83.6 34.6 19.6 67 24 97.8 16.8l6.2-18.8 11.8 13.4c21.8-8.4 42.8-22.4 63.2-40.4l-20-19.8 34.4 6c12.6-12.6 24.8-26.6 36.8-41.6-45.6-9.2-80.2-18.6-109.4-25.4l-24 20.6L830 596z m-479.6-147.8l-5.2 2 1-1.6c1.6-0.2 3-0.2 4.2-0.4z m229.8 237.6l1.8 2.6-8.8-3.4c2.4 0.4 4.6 0.6 7 0.8z m248.4-628.8c-15.4-14.8-30.4-19.4-45-18.2-17 1.4-35 10.2-53.4 21.4l-12.4 7.6-12.4-7.2c-48.4-28.2-86.6-36.8-118.8-34.2-32.2 2.6-60 16.6-86.6 33.6l-13.4 8.6-13.2-8.8c-36.8-24.6-70-35.6-99.8-35-28.8 0.6-55.6 12.2-80.6 33.4l-16.8 14.2-15.8-15.4c-22.2-21.6-43.4-31-64-30.4-21.2 0.6-43.6 11.8-66.6 31.4l-31.6-37c31.4-26.8 63.6-42.2 96.8-43.2 28.2-0.8 56.2 8.6 83.4 30.2 29-20.2 60.4-31.2 94.4-31.8 35.8-0.6 73.8 10.4 114.2 34.6 28.6-16.8 59.2-30 95.4-33 38.6-3.2 82.6 5.4 135.2 33.8 20.2-11.2 40.6-19.4 62-21.2 28-2.4 55.6 5.8 82.8 31.6l-33.8 35z"  horiz-adv-x="1024" />

    
    <glyph glyph-name="feizhu" unicode="&#58967;" d="M512 384m-512 0a512 512 0 1 1 1024 0 512 512 0 1 1-1024 0ZM796.444444 622.933333H524.925156c-205.255111 0-294.593422-124.086044-297.301334-249.378133l-0.068266-5.870933c0-68.312178 42.848711-242.528711 232.743822-242.528711 189.872356 0 233.039644 167.1168 232.721066 229.762844 74.979556 44.032 96.324267 125.815467 90.498845 127.635911L796.444444 508.086044h-38.798222c13.903644 18.8416 28.125867 47.3088 38.798222 76.549689V622.933333z m-284.444444-51.040711h206.870756c-7.031467-46.011733-28.125867-77.801244-38.798223-89.338311h38.798223l-0.113778-1.137778c-1.319822-9.602844-14.381511-73.796267-77.459911-100.989155 3.754667-108.839822-70.132622-204.231111-181.020445-204.231111-100.124444 0-180.997689 81.260089-180.997689 204.231111 0 95.982933 77.368889 194.901333 232.743823 191.465244z m-16.952889-174.785422h-56.593067c-50.198756 0-90.5216-30.446933-90.5216-80.509156 0-50.016711 40.322844-80.418133 90.5216-80.418133h56.593067c50.198756 0 90.498844 30.401422 90.498845 80.418133 0 50.062222-40.277333 80.4864-90.5216 80.4864h0.022755z m-77.596444-51.086222a26.669511 26.669511 0 1 0 0-53.339022 26.669511 26.669511 0 1 0 0 53.339022z m99.396266 0a26.669511 26.669511 0 1 0 0-53.339022 26.669511 26.669511 0 1 0 0 53.339022z m-161.609955 115.552711a26.669511 26.669511 0 1 1 0-53.339022 26.669511 26.669511 0 0 1 0 53.339022z m223.823644 0a26.669511 26.669511 0 1 1 0-53.339022 26.669511 26.669511 0 0 1 0 53.339022z"  horiz-adv-x="1024" />

    
    <glyph glyph-name="zhuanzhang" unicode="&#58883;" d="M954.014 373.305c-31.51-0.303-185.995 88.917-190.874 93.568-11.734 11.188-7.3 25.115 4.673 27.02s79.203 9.898 79.203 9.898c-41.318 110.437-133.518 198.636-254.527 227.223-193.138 45.643-392.87-83.827-437.013-281.424-0.38-1.685-3.047-21.83-19.045-21.191-10.83 0.432-46.309 14.539-59.136 20.556-14.644 6.868-18.601 5.094-14.16 27.201 50.235 251.201 307.497 420.497 554.419 362.572 204.919-48.063 347.27-225.878 362.91-428.477 2.619-27.151-11.203-36.797-26.451-36.944zM631.498 318.246c20.284 0 36.729-16.427 36.729-36.727 0-20.265-16.445-36.729-36.729-36.729l-73.456 0 0-45.909c0-25.359-20.551-45.911-45.911-45.911-25.358 0-45.91 20.551-45.91 45.911l0 45.909-73.456 0c-20.284 0-36.727 16.465-36.727 36.729 0 20.302 16.444 36.727 36.727 36.727l73.456 0 0 36.73-73.456 0c-20.284 0-36.727 16.461-36.727 36.726 0 20.3 16.444 36.729 36.727 36.729l73.456 0 0 2.512-81.508 81.491c-14.445 14.455-14.445 37.875 0 52.313s37.858 14.437 52.304 0l74.497-74.478 74.786 74.784c14.444 14.419 37.859 14.419 52.303 0 14.446-14.454 14.446-37.877 0-52.313l-80.558-80.559 0-3.749 73.456 0c20.284 0 36.729-16.429 36.729-36.729 0-20.267-16.445-36.726-36.729-36.726l-73.456 0 0-36.73 73.456 0zM263.027 266.418c16.112-10.302 12.229-30.994-5.477-32.836s-73.153-6.725-73.153-6.725c43.956-103.014 133.043-184.236 248.233-211.442 193.137-45.623 390.651 77.582 434.806 275.179 0.906 4.054 0.877 3.418 2.457 12.122s4.139 21.945 21.142 16.052 58.475-18.085 71.394-21.539 11.465-8.548 9.846-20.553c-0.493-3.651-1.238-6.994-2.017-10.509-57.81-256.921-309.451-417.196-562.049-357.924-204.677 48.01-346.947 225.429-362.865 427.724-2.159 34.762 22.4 41.857 47.505 28.577 19.75-10.447 154.064-87.822 170.176-98.124z"  horiz-adv-x="1024" />

    
    <glyph glyph-name="wode" unicode="&#58926;" d="M621.80536 386.809999c72.541153 41.201377 121.483842 119.160937 121.483842 208.505801 0 132.347261-107.33868 239.687988-239.687988 239.687988-132.324748 0-239.639892-107.340727-239.639892-239.687988 0-91.487667 51.290153-171.018002 126.677121-211.375152-188.30676-51.953256-326.757019-221.944881-326.757019-423.073668 0-8.767688 0.432859-17.60496 0.934279-26.372647l44.730761 2.095731c-0.432859 8.15268-0.865717 16.216333-0.865717 24.27794 0 208.55492 163.982772 380.051829 371.531781 395.948891 7.699356-0.75213 15.510252-1.140986 23.38971-1.140986 9.954723 0 19.770276 0.618077 29.381168 1.802042 212.379015-10.934027 381.803729-184.638207 381.803729-396.608923 0-7.653307-0.410346-15.35164-0.910743-24.323988l44.821835-0.844228c0.454348 8.381901 0.865717 16.787338 0.865717 25.168216C959.56292 165.888424 815.692209 338.550879 621.80536 386.809999zM503.601214 403.59529c-105.721857 0-191.721533 85.99763-191.721533 191.720509 0 105.746416 85.999676 191.768605 191.721533 191.768605 105.791441 0 191.768605-86.022189 191.768605-191.768605C695.369819 489.59292 609.392656 403.59529 503.601214 403.59529z"  horiz-adv-x="1024" />

    
    <glyph glyph-name="chengshifuwu" unicode="&#58938;" d="M921.66-2.114l-840.09 0.425c0 0-90.418-4.057-18.761 63.969 18.829 10.309 40.889 19.91 65.632 28.643-6.166 13.879-9.717 29.371-9.717 45.791 0 58.646 44.015 106.176 98.318 106.176 54.303 0 98.318-47.531 98.318-106.176 0-1.248-0.133-2.463-0.173-3.693 6.338 0.821 12.735 1.625 19.201 2.368l0 549.18c0 36.084 26.701 64.676 62.899 64.676l376.887 0c36.198 0 61.463-28.593 61.463-64.676l0-579.987c43.991-12.33 81.826-27.018 111.415-43.548 107.844-71.911-25.396-63.147-25.396-63.147zM544.59 603.721c0 18.039-14.231 32.338-32.337 32.338l-64.676 0c-18.103 0-32.337-14.299-32.337-32.338l0-88.937c0-18.033 22.318-32.338 40.423-32.338l56.591 0c18.107 0 32.337 14.305 32.337 32.338l0 88.937zM544.59 369.261c0 18.047-14.231 32.337-32.337 32.337l-64.676 0c-18.103 0-32.337-14.29-32.337-32.337l0-88.933c0-18.033 22.318-32.338 40.423-32.338l56.591 0c18.107 0 32.337 14.305 32.337 32.338l0 88.933zM754.794 603.721c0 18.039-14.235 32.338-32.337 32.338l-64.679 0c-18.103 0-32.338-14.299-32.338-32.338l0-88.937c0-18.033 22.321-32.338 40.423-32.338l56.594 0c18.103 0 32.337 14.305 32.337 32.338l0 88.937zM754.794 369.261c0 18.047-14.235 32.337-32.337 32.337l-64.679 0c-18.103 0-32.338-14.29-32.338-32.337l0-88.933c0-18.033 22.321-32.338 40.423-32.338l56.594 0c18.103 0 32.337 14.305 32.337 32.338l0 88.933z"  horiz-adv-x="1024" />

    
    <glyph glyph-name="jianshen" unicode="&#58973;" d="M896.952442 635.39768 884.601136 635.39768c-7.614421 0-14.902408-1.38658-21.636786-3.90596l0 10.926864c0 45.404096-36.939307 82.34238-82.34238 82.34238l-2.058892 0c-45.403073 0-82.34238-36.938284-82.34238-82.34238L696.220698 431.600111 327.734276 431.600111 327.734276 642.419608c0 45.404096-36.938284 82.34238-82.34238 82.34238l-2.058892 0c-45.404096 0-82.34238-36.938284-82.34238-82.34238l0-10.909467c-6.722098 2.509147-13.994736 3.888564-21.591761 3.888564L127.047558 635.398704c-34.107819 0-61.757552-27.649733-61.757552-61.757552l0-405.538293c0-34.107819 27.649733-61.757552 61.757552-61.757552l12.351306 0c7.597025 0 14.869662 1.379417 21.591761 3.888564l0-15.395642c0-45.403073 36.938284-82.34238 82.34238-82.34238l2.058892 0c45.404096 0 82.34238 36.939307 82.34238 82.34238L327.734276 303.968246l368.484376 0 0-209.130018c0-45.403073 36.939307-82.34238 82.34238-82.34238l2.058892 0c45.403073 0 82.34238 36.939307 82.34238 82.34238l0 15.413038c6.734378-2.520403 14.023388-3.90596 21.636786-3.90596l12.351306 0c34.107819 0 61.757552 27.649733 61.757552 61.757552L958.707948 573.641151C958.708971 607.74897 931.059238 635.39768 896.952442 635.39768zM159.984714 168.102858c0-11.368932-9.216919-20.585851-20.585851-20.585851L127.047558 147.517007c-11.368932 0-20.585851 9.216919-20.585851 20.585851L106.461707 573.641151c0 11.368932 9.216919 20.585851 20.585851 20.585851l12.351306 0c11.368932 0 20.585851-9.216919 20.585851-20.585851L159.984714 168.102858zM245.391896 53.667549l-2.058892 0c-22.702048 0-41.171702 18.46863-41.171702 41.171702L202.161303 642.419608c0 22.702048 18.469654 41.171702 41.171702 41.171702l2.058892 0c22.701025 0 41.171702-18.469654 41.171702-41.171702l0-547.580357C286.563598 72.13618 268.093944 53.667549 245.391896 53.667549zM695.212742 345.139947 327.734276 345.139947l0 45.288462 367.477442 0L695.211718 345.139947zM821.791625 94.839251c0-22.702048-18.46863-41.171702-41.171702-41.171702l-2.058892 0c-22.702048 0-41.171702 18.46863-41.171702 41.171702L737.38933 642.419608c0 22.702048 18.46863 41.171702 41.171702 41.171702l2.058892 0c22.702048 0 41.171702-18.469654 41.171702-41.171702L821.791625 94.839251zM917.538293 168.102858c0-11.368932-9.216919-20.585851-20.585851-20.585851L884.601136 147.517007c-11.368932 0-20.585851 9.216919-20.585851 20.585851L864.015286 573.641151c0 11.368932 9.216919 20.585851 20.585851 20.585851l12.351306 0c11.368932 0 20.585851-9.216919 20.585851-20.585851L917.538293 168.102858z"  horiz-adv-x="1024" />

    
    <glyph glyph-name="huwai" unicode="&#59015;" d="M955.2328 34.206312c-0.233314 15.696494-4.119831 201.008037-57.382918 389.606439-32.340569 114.511034-76.334549 206.066239-130.760113 272.120654C697.2921 780.644739 610.473779 823.598017 509.045715 823.598017c-89.25686 0-168.369685-43.073005-235.144508-128.023792-51.727105-65.808822-96.175433-157.049872-132.110877-271.191492C81.170694 231.836415 65.030086 36.691923 65.030086 34.738431c0-34.307364 12.506848-64.536852 37.127595-79.356372 19.064194-11.475356 44.50768-17.053398 77.783551-17.053398l661.506059 0c33.275871 0 58.718333 5.578042 77.782527 17.053398C943.850565-29.798421 955.2328-6.936737 955.2328 34.206312zM736.006843 670.730397c50.866505-61.638849 92.298126-148.148132 123.145691-257.126148 45.070498-159.227468 54.009078-320.615135 55.700603-367.298364L703.967126 46.305885l44.540426 89.180112c2.856048 5.717212 2.807952 12.455683-0.128937 18.134009L530.000979 575.690834c0.416486 4.170996-0.487094 8.259104-2.453888 11.761881L527.547091 783.001413C608.487541 778.052704 678.547177 740.360244 736.006843 670.730397zM308.394812 144.263917l149.444661 288.840454-89.769536-408.325779L308.394812 144.263917zM508.279259 476.175329l109.447714-497.832326-218.895429 0L508.279259 476.175329zM558.719044 433.105395l149.444661-288.840454-59.675124-119.485325L558.719044 433.105395zM487.638149 782.573671l0-198.141756c-0.989537-2.744507-1.381463-5.721305-1.079588-8.743128L268.180925 153.620006c-2.936889-5.678326-2.984984-12.416797-0.128937-18.134009l44.540426-89.180112L106.321514 46.305885C116.879987 149.147134 191.649901 754.604666 487.638149 782.573671zM107.826797 6.289496l222.555795 0c0.721431 0 1.433652 0.042979 2.13564 0.116657l14.016225-28.063149L179.940209-21.656997C131.083477-21.655973 113.883747-7.547651 107.826797 6.289496zM841.446267-21.655973 670.025083-21.655973l13.983479 27.998681c0.342808-0.017396 0.681522-0.052189 1.028423-0.052189l228.52167 0C907.502729-7.547651 890.302999-21.655973 841.446267-21.655973z"  horiz-adv-x="1024" />

    
    <glyph glyph-name="yule" unicode="&#59033;" d="M909.135926-24.271544 684.514075-24.271544c-0.206708 0.684592-0.446162 1.36509-0.730641 2.037403l-50.870598 120.131031c37.015032 14.876826 70.860884 36.009122 100.236935 62.078871l21.500687-21.499663-24.105001-24.105001c-7.79043-7.79043-7.79043-20.421098 0-28.211529 3.895727-3.89368 8.999978-5.842055 14.105253-5.842055s10.209526 1.948375 14.105253 5.842055l76.41846 76.41846c7.79043 7.79043 7.79043 20.421098 0 28.211529-7.792477 7.788383-20.419052 7.788383-28.211529 0l-24.102954-24.102954-21.439288 21.439288c50.609655 56.55404 82.84073 129.873929 87.193875 210.493062l28.603455 0 0-33.911344c0-11.016915 8.931416-19.947308 19.947308-19.947308s19.947308 8.930393 19.947308 19.947308L917.112598 472.425935c0 11.016915-8.931416 19.947308-19.947308 19.947308s-19.947308-8.930393-19.947308-19.947308l0-33.911344-28.754904 0c-4.828982 79.310324-36.633339 151.443178-86.342484 207.331046l20.738323 20.738323 24.102954-24.101931c3.895727-3.894703 8.999978-5.842055 14.105253-5.842055 5.106298 0 10.209526 1.948375 14.105253 5.843078 7.79043 7.79043 7.79043 20.420075 0 28.210505l-76.41846 76.416414c-7.792477 7.79043-20.419052 7.789407-28.211529-0.001023-7.79043-7.79043-7.79043-20.420075 0-28.210505l24.103978-24.102954-20.709671-20.709671c-56.417941 50.376341-129.473817 82.480526-209.794144 86.912465L524.142551 789.593552l33.911344 0c11.015891 0 19.947308 8.930393 19.947308 19.947308s-8.931416 19.947308-19.947308 19.947308L450.338638 829.488167c-11.015891 0-19.947308-8.930393-19.947308-19.947308s8.931416-19.947308 19.947308-19.947308l33.911344 0 0-28.694529c-79.846536-4.76656-152.438854-36.870746-208.53343-87.070055l-20.966521 20.966521 24.102954 24.102954c7.79043 7.79043 7.79043 20.421098 0 28.211529-7.792477 7.79043-20.419052 7.79043-28.211529 0l-76.416414-76.416414c-7.79043-7.79043-7.79043-20.421098 0-28.211529 3.894703-3.894703 9.001001-5.842055 14.105253-5.842055s10.210549 1.947352 14.105253 5.842055l24.102954 24.102954 21.026896-21.026896c-49.562812-55.847959-81.264838-127.869273-86.085634-207.043497l-30.30419 0 0 33.911344c0 11.016915-8.930393 19.947308-19.947308 19.947308s-19.947308-8.930393-19.947308-19.947308l0-107.717304c0-11.016915 8.930393-19.947308 19.947308-19.947308s19.947308 8.930393 19.947308 19.947308L131.175575 398.618952l30.153764 0c4.344958-80.482009 36.475749-153.690358 86.938048-210.204489l-21.727861-21.727861-24.102954 24.102954c-7.79043 7.786337-20.421098 7.788383-28.210505 0-7.79043-7.79043-7.791453-20.421098-0.001023-28.211529l76.416414-76.41846c3.895727-3.89368 8.999978-5.842055 14.105253-5.842055 5.104251 0 10.209526 1.948375 14.105253 5.842055 7.79043 7.79043 7.79043 20.421098 0 28.211529l-24.102954 24.103978 21.756513 21.756513c30.93557-27.514657 66.845431-49.541323 106.199741-64.549132l-47.684022-118.233821c-0.229221-0.568958-0.420579-1.144056-0.594541-1.720178L111.228267-24.271544c-11.016915 0-19.947308-8.931416-19.947308-19.947308s8.930393-19.947308 19.947308-19.947308l797.907659 0c11.015891 0 19.947308 8.931416 19.947308 19.947308S920.151817-24.271544 909.135926-24.271544zM617.355513 134.633582l-83.647095 197.532889c6.540973 2.212388 12.750395 5.145184 18.523889 8.725732l152.672168-152.671145C679.160137 165.730834 649.610124 147.499611 617.355513 134.633582zM454.918957 417.380248c0 27.600615 22.454408 50.053999 50.053999 50.053999 25.588795 0 46.739511-19.305695 49.687656-44.11473-0.373507-1.52575-0.593518-3.111874-0.593518-4.753257 0-1.882883 0.278339-3.697205 0.766456-5.423523-2.160199-25.622564-23.688515-45.815465-49.860595-45.815465C477.373365 367.327272 454.918957 389.780657 454.918957 417.380248zM484.249983 113.835907c-16.492626 1.11438-32.632211 3.532453-48.307216 7.182586l48.307216 119.777991L484.249983 113.835907zM524.145621 252.440685l55.108109-130.137942c-17.803481-4.483104-36.225039-7.385201-55.108109-8.565073L524.145621 252.440685zM733.176378 216.371188 580.664869 368.880651c5.760191 8.959046 9.983375 18.99154 12.273535 29.738301l215.703737 0C804.385187 328.992175 776.612657 265.625986 733.176378 216.371188zM808.490691 438.514591l-216.101803 0c-2.295276 9.492188-6.094812 18.399045-11.140735 26.456558l152.629189 152.629189C776.422322 569.020924 803.780413 506.835629 808.490691 438.514591zM705.694467 645.839497 553.141002 493.286032c-8.759501 5.579065-18.537192 9.685593-28.995381 11.965519L524.145621 721.02385C593.474616 716.691171 656.57884 689.045531 705.694467 645.839497zM484.249983 720.925612l0-216.032218c-10.006911-2.369977-19.367093-6.411013-27.777647-11.819187L303.96185 645.58367C352.754113 688.612673 415.393755 716.271616 484.249983 720.925612zM275.81172 617.311767l152.671145-152.671145c-4.942569-7.969509-8.665357-16.764825-10.92891-26.126031L201.454198 438.514591C206.15629 506.69953 233.412051 568.77533 275.81172 617.311767zM201.303772 398.618952l215.70169 0c2.261507-10.613732 6.407943-20.531616 12.059664-29.40675L276.512684 216.659761C233.222739 265.873626 205.552539 329.129298 201.303772 398.618952zM304.751842 188.476885 457.381032 341.105051c6.344498-3.972475 13.208836-7.184633 20.478404-9.488095L397.630183 132.688277C363.291097 145.678126 331.897086 164.703435 304.751842 188.476885zM420.865373 83.633025c20.467147-5.15951 41.657772-8.473999 63.384609-9.770528l0-30.312376-33.911344 0c-11.015891 0-19.947308-8.931416-19.947308-19.947308s8.931416-19.947308 19.947308-19.947308l107.717304 0c11.015891 0 19.947308 8.931416 19.947308 19.947308s-8.931416 19.947308-19.947308 19.947308l-33.911344 0 0 30.213116c24.365944 1.344624 48.058552 5.244444 70.827115 11.420097l46.350654-109.455901L377.347231-24.272567 420.865373 83.633025z"  horiz-adv-x="1024" />

    
    <glyph glyph-name="ziranfengguang" unicode="&#59036;" d="M962.915783-41.275823c0.186242 2.63399-0.144286 5.347798-1.074472 7.997138L780.031523 484.732216c-2.87856 8.205892-10.698666 13.633508-19.438725 13.33061-8.695033-0.271176-16.20917-6.142907-18.574031-14.512529l-63.498196-224.768183L440.159812 817.383478c-3.182482 7.458879-10.541077 12.276604-18.671245 12.113899-8.108678-0.13303-15.329127-5.16258-18.263969-12.721743L74.28282-30.226163c-0.889253-2.289136-1.303692-4.640694-1.333368-6.960529-0.645706-1.962701-1.007957-4.054339-1.007957-6.232958 0-11.014868 8.930393-19.945261 19.945261-19.945261l851.203492 0c11.014868 0 19.945261 8.930393 19.945261 19.945261C963.03551-42.695149 962.991508-41.980881 962.915783-41.275823zM763.268744 412.042683l46.534849-132.585691-40.560788-28.40391-43.155892 29.376051L763.268744 412.042683zM703.823863 201.623299l10.829649 38.33305 43.528376-29.628808c3.387144-2.306532 7.306406-3.457752 11.222599-3.457752 4.004197 0 8.009418 1.203408 11.440563 3.607154l42.678008 29.887704 92.602048-263.841084L798.963711-23.476435l-95.54303 223.905536C703.55985 200.825121 703.70823 201.215 703.823863 201.623299zM273.567609 372.733399l58.43897-52.430116c3.777023-3.388167 8.54256-5.099135 13.320377-5.099135 4.306072 0 8.622378 1.38965 12.231579 4.193509l73.371054 56.986899 72.441892-54.409191c6.884804-5.17179 16.316617-5.338588 23.3805-0.416486l62.908772 43.831274 165.933193-388.865565L119.695103-23.475412 273.567609 372.733399zM317.318042 485.389178l40.643676-36.464493c7.123234-6.391571 17.780969-6.823406 25.400506-1.023306l49.852408 37.951357 47.092551-37.983079c3.648087-2.942005 8.081049-4.420683 12.524245-4.420683 4.15053 0 8.309246 1.292436 11.834536 3.891633l38.054711 28.055986 30.949896-72.53092-57.881268-40.327474-73.083505 54.891168c-7.190773 5.398964-17.110703 5.321192-24.212448-0.196475l-72.247464-56.114019-57.243749 51.357691L317.318042 485.389178zM422.684812 756.699374 526.633279 513.096217l-33.257451-24.51944-47.284933 38.137599c-7.145747 5.764284-17.297968 5.903453-24.603351 0.344854l-49.164746-37.428448-39.569204 35.500539L422.684812 756.699374z"  horiz-adv-x="1024" />

    
    <glyph glyph-name="shouyelicai" unicode="&#58881;" d="M511.393179-59.374016c-244.384963 0-443.207218 198.822255-443.207218 443.207218 0 244.396219 198.822255 443.218474 443.207218 443.218474s443.207218-198.822255 443.207218-443.218474C954.600397 139.448238 755.778142-59.374016 511.393179-59.374016zM511.393179 780.627343c-218.793098 0-396.782885-178.001043-396.782885-396.794142s177.989787-396.782885 396.782885-396.782885 396.782885 177.989787 396.782885 396.782885S730.186278 780.627343 511.393179 780.627343zM353.773326 599.546148l129.059378-220.817198L379.841028 378.72895 379.841028 360.367767l113.066125 0 0-67.477834L379.841028 292.889933l0-18.361183 113.066125 0 0-97.676623 23.676236 0 0 97.676623 113.066125 0 0 18.361183L516.583388 292.889933 516.583388 360.367767l113.066125 0 0 18.361183L526.634302 378.72895l129.059378 220.817198-27.228131 0L504.744759 385.831718 381.02397 599.546148 353.773326 599.546148z"  horiz-adv-x="1024" />

    
    <glyph glyph-name="jiaoya" unicode="&#59028;" d="M810.520419 654.814915c-24.064069 0-43.566238 19.485797-43.566238 43.534516 0 24.035416 19.503193 43.521213 43.566238 43.521213 24.048719 0 43.552935-19.485797 43.552935-43.521213C854.072331 674.299689 834.569138 654.814915 810.520419 654.814915zM698.789709 717.897649c-23.011086 0-41.674145 18.646686-41.674145 41.643446 0 22.99676 18.662035 41.644469 41.674145 41.644469 23.00904 0 41.658795-18.647709 41.658795-41.644469C740.448504 736.545358 721.798748 717.897649 698.789709 717.897649zM579.474252 736.834954c-25.453718 0-46.086641 20.615527-46.086641 46.052872 0 25.424042 20.632923 46.053895 46.086641 46.053895 25.452695 0 46.082548-20.629853 46.082548-46.053895C625.557824 757.450481 604.926948 736.834954 579.474252 736.834954zM456.997803 724.215542c-28.931936 0-52.386114 23.437805-52.386114 52.356438 0 28.916587 23.454178 52.370765 52.386114 52.370765 28.949332 0 52.402487-23.453155 52.402487-52.370765C509.400291 747.653347 485.947136 724.215542 456.997803 724.215542zM275.865443 624.538355c-51.608402 0-93.435019 41.796942-93.435019 93.359294 0 51.577702 41.826618 93.374644 93.435019 93.374644 51.593052 0 93.421716-41.795918 93.421716-93.374644C369.286136 666.335297 327.457472 624.538355 275.865443 624.538355zM580.720639-60.464861c-22.737864 0-45.080731 5.838985-64.6136 16.887622-37.217646 21.050432-62.065568 49.204655-73.855078 83.677794-11.05887 32.340569-10.585079 70.582545 1.409093 113.660666 1.851161 6.632047 2.90312 12.431124 3.220345 17.742083 0.925069 15.286148 1.387603 28.011984 1.413186 38.924521 0.071631 22.487154-8.019651 44.923142-22.785959 63.190181-29.067013 35.9467-53.163827 72.055083-71.618131 107.319238-21.608134 41.273009-24.898063 89.918939-9.022491 133.459594 19.665899 53.949726 45.930075 93.759407 80.292698 121.702829 39.489386 32.112372 90.702792 48.494481 152.216797 48.690956l0.358157 0c6.589069 0 13.192464-0.523933 19.623943-1.556449 53.472865-8.469905 96.235808-26.741038 130.695644-55.850006 30.061666-25.394367 53.045123-58.56893 70.26225-101.419877 12.730952-31.692816 19.639293-66.288752 20.535709-102.8259 3.465938-141.277654-11.511171-248.637824-45.785789-328.21523-16.166191-37.535895-37.008892-69.052702-61.948911-93.678566-23.708981-23.410176-51.852972-41.324174-83.648119-53.244668C612.49532-57.615976 596.765057-60.464861 580.720639-60.464861zM577.735655 648.97593l-0.248663 0c-100.700493-0.320295-162.066119-45.609781-198.968587-146.845463-12.431124-34.095539-9.842159-72.213695 7.104815-104.582917 17.362436-33.177634 40.151465-67.296709 67.737754-101.410668 19.928888-24.653493 30.848589-55.126528 30.750351-85.808318-0.027629-11.598152-0.511653-25.00551-1.478677-40.974203-0.468674-7.861038-1.932002-16.111956-4.470825-25.209148-20.530592-73.741491-2.871397-123.489522 55.57883-156.547429 14.164604-8.012488 30.410614-12.246929 46.979988-12.246929 11.733229 0 23.230074 2.081405 34.17331 6.185886 56.447617 21.162995 97.425913 62.885236 125.280308 127.556141 31.739888 73.691349 46.164413 179.057095 42.87346 313.168536-0.789992 32.246425-6.834662 62.644759-17.965164 90.352821-31.555693 78.538751-86.643336 121.516588-173.364443 135.252427C587.185888 648.594237 582.364069 648.97593 577.735655 648.97593z"  horiz-adv-x="1024" />

    
    <glyph glyph-name="zhoubianyou" unicode="&#58966;" d="M632.170428 241.865839l-4.15974-45.587268c94.4133-13.157671 169.388898-40.667212 169.388898-72.583109 0-44.690852-146.609079-80.849376-288.134373-80.849376-141.493571 0-288.10265 36.158525-288.10265 80.849376 0 31.562856 73.233931 58.799174 166.099992 72.14718l-4.136204 45.644573C227.413941 224.874863 115.142925 178.469973 115.142925 123.721045c0-68.720128 176.482457-124.420731 394.176524-124.420731 217.696114 0 394.179594 55.700603 394.179594 124.420731C903.49802 178.85269 789.651113 225.585037 632.170428 241.865839L632.170428 241.865839zM543.738353 109.040694 543.738353 317.766506l-53.720505 0 0-208.725812L543.738353 109.040694 543.738353 109.040694zM796.988218 417.221636 665.553747 495.784946 329.845869 495.784946l0-157.220764 334.131987 0L796.988218 417.221636 796.988218 417.221636zM801.178657 526.501528 801.178657 694.556035 288.741705 694.556035l-131.434471-83.972507 133.011386-84.105536 510.860037 0L801.178657 526.501528zM543.738353 787.638013l-53.720505 0 0-72.284303 53.720505 0L543.738353 787.638013 543.738353 787.638013zM543.738353 787.638013"  horiz-adv-x="1024" />

    
    <glyph glyph-name="shangchaobianlidian" unicode="&#59241;" d="M167.73984 731.184257 850.800821 731.184257c14.833847 0 26.859741 8.226359 26.859741 18.373463l0 8.052396c0 10.148128-12.025894 18.374486-26.859741 18.374486L167.73984 775.984602c-14.83487 0-26.860764-8.226359-26.860764-18.374486l0-8.052396C140.880099 739.410616 152.905994 731.184257 167.73984 731.184257zM952.320982 460.078723l-66.550719 219.696678L519.851317 679.7754l0 0.084934L138.298298 679.860335 71.890842 460.638471c-4.52506-12.147668-7.004531-25.292036-7.004531-39.017642 0-61.73504 50.04479-111.778806 111.777783-111.778806 57.857732 0 105.447611 43.957141 111.195521 100.298334l1.166569 0c5.747911-56.341193 53.338812-100.298334 111.195521-100.298334 57.828057 0 105.398492 43.913139 111.185288 100.213399l1.184989 0c5.786797-56.30026 53.357232-100.213399 111.186312-100.213399 57.827033 0 105.396445 43.913139 111.183242 100.213399l1.184989 0c5.78782-56.30026 53.359278-100.213399 111.186312-100.213399 61.732993 0 111.778806 50.043766 111.778806 111.778806C959.113689 435.134611 956.715059 448.087621 952.320982 460.078723zM815.735188-63.087595 202.806497-63.087595c-35.687804 0-64.723094 30.266327-64.723094 67.468624L138.083403 272.630517c0 11.30344 9.162684 20.466124 20.466124 20.466124 11.302417 0 20.466124-9.162684 20.466124-20.466124L179.015651 4.380006c0-14.632255 10.67206-26.536376 23.790846-26.536376l612.92869 0c13.117762 0 23.789823 11.904121 23.789823 26.536376L839.52501 272.630517c0 11.30344 9.162684 20.466124 20.466124 20.466124s20.466124-9.162684 20.466124-20.466124L880.457258 4.380006C880.457258-32.821267 851.422991-63.087595 815.735188-63.087595z"  horiz-adv-x="1024" />

    
    <glyph glyph-name="hotel" unicode="&#58917;" d="M0-128h512v1024h-512v-1024zM315.968 769.408h128v-128h-128v128zM315.968 512h128v-128h-128v128zM315.968 257.408h128v-128h-128v128zM64 769.408h128v-128h-128v128zM64 512h128v-128h-128v128zM64 257.408h128v-128h-128v128zM576 571.776h448v-58.624h-448v58.624zM576-128h128v223.936h192v-223.936h128v570.624h-448v-570.624z"  horiz-adv-x="1024" />

    
    <glyph glyph-name="koubei" unicode="&#58882;" d="M939.577 697.009c-0.153 39.767-32.554 72.068-72.354 72.068h-704.838c-40.479 0-72.204-31.634-72.353-72.068-0.482-10.83-8.279-189.762 0.107-250.882 13.772-102.643 114.042-283.561 286.16-351.965v-46.941c0-26.637 21.665-48.299 48.297-48.299h3.606c35.762 0 129.873 5.686 231.156 58.357 111.282 57.877 196.313 152.801 252.843 282.408 11.354 27.75 24.788 73.312 28.495 106.658 7.177 62.198-0.633 239.854-1.119 250.664zM404.802 148.873c-161.048 59.949-245.122 229.102-254.353 306.404-5.661 45.292-2.684 181.428 0.081 240.883l0.015 0.563c0 6.536 5.312 11.846 11.84 11.846h704.837c6.53 0 11.844-5.31 11.844-11.846l0.016-1.766c2.962-63.743 6.803-196.059 0.080-240.883-3.582-28.676-15.455-69.355-24.349-90.477-117.063-270.156-338.375-301.814-418.003-304.027v78.104l-32.008 11.199zM735.231 336.004c9.77 13.682 6.406 32.258-7.647 42.295-5.147 3.674-11.12 5.621-17.279 5.621-9.727 0-19.077-4.957-25.126-13.414-41.514-59.967-109.251-95.775-181.199-95.775-121.265 0-219.922 98.66-219.922 219.927 0 16.396-13.855 30.255-30.255 30.255s-30.256-13.858-30.256-30.255c0-154.632 125.801-280.437 280.434-280.437 92.298 0 178.792 45.591 231.25 121.783zM749.857 464.464c7.795-4.575 17.168-7.278 27.172-7.28 9.987 0.005 19.361 2.711 27.413 7.428 16.477 9.521 26.881 27.54 26.881 46.885 0 29.944-24.363 54.308-54.309 54.308-29.943 0-54.308-24.364-54.308-54.308 0.002-19.344 10.407-37.367 27.151-47.033z"  horiz-adv-x="1024" />

    
    <glyph glyph-name="zhifubao" unicode="&#58946;" d="M863.36 727.658667C772.437333 818.581333 648.426667 872.341333 512 872.341333S247.445333 814.464 160.618667 727.658667C69.696 636.714667 15.936 512.704 15.936 376.277333S73.813333 111.722667 160.618667 24.938667c90.944-91.008 214.954667-144.704 351.381333-144.704 41.344 0 82.688 4.16 124.010667 16.490666 33.066667 8.298667 66.346667 20.373333 95.082666 37.205334 10.218667 7.701333 3.541333 26.368-19.882666 14.933333a455.296 455.296 0 0 0-90.944-33.088c-37.184-8.298667-74.453333-14.826667-115.733334-12.416-125.333333 7.36-220.138667 35.584-332.138666 144.938667-83.648 81.685333-132.437333 200.853333-132.437334 336 0 124.010667 52.416 242.666667 135.104 325.333333 82.666667 82.666667 206.101333 139.562667 334.229334 139.562667 124.010667 0 248.896-50.666667 331.562666-133.354667 82.688-82.666667 144-199.850667 144-328 0-49.621333-5.376-102.613333-17.792-144-8.256-28.906667-31.04-81.365333-43.434666-106.218667-74.325333 47.658667-224.661333 138.666667-329.664 186.005334 41.322667 66.133333 82.282667 147.370667 87.850666 158.122666 0 0 4.821333 9.749333 4.821334 13.888a11.84 11.84 0 0 1-10.858667 12.928l-158.464 0.042667v56.341333l220.885333-0.234666c12.416 0 25.962667-2.410667 25.962667 9.984 0 12.394667-11.946667 11.349333-24.362667 11.349333l-222.272-0.448-0.576 79.04c0 12.416 0.661333 29.994667-9.130666 29.930667-12.373333-0.085333-11.541333-12.16-11.541334-24.554667l-0.32-83.392-219.136-0.554667c-12.394667 0-26.154667 1.002667-25.28-11.349333 0.746667-10.389333 11.264-9.984 23.658667-9.984l220.757333 0.554667-0.448-55.637334-165.44-1.066666c-12.373333 0-22.144-0.938667-22.378666-11.605334-0.341333-14.997333 17.962667-11.2 36.266666-11.349333l314.645334-0.853333s-44.672-95.466667-82.666667-152.021334a1614.186667 1614.186667 0 0 1-111.658667 43.562667c-150.677333 50.005333-200.341333-30.336-200.341333-30.336-64-79.338667-11.008-199.338667 116.992-195.328 52.010667 4.992 86.677333 34.005333 86.677333 34.005333 37.333333 23.658667 77.461333 71.701333 114.666667 121.344 115.733333-57.92 255.082667-137.429333 304.682667-170.517333 24.832-20.672 39.253333-28.352 51.648-11.818667 24.832 37.205333 35.285333 68.394667 49.770666 112.213334 16.512 50.005333 19.648 99.093333 19.648 148.693333 0.042667 128.128-53.717333 252.138667-144.661333 343.082667z m-317.056-434.346667c-34.304-42.325333-108.992-140.672-205.994667-117.994667-20.522667 4.8-57.664 23.338667-72.341333 53.994667-37.333333 82.666667 36.992 159.338667 138.325333 139.328 35.328-6.336 95.338667-25.664 155.136-54.208l-15.125333-21.12z"  horiz-adv-x="1024" />

    
    <glyph glyph-name="jiaoya1" unicode="&#58950;" d="M409.6 768c0-40.96 33.28-74.24 74.24-74.24s74.24 33.28 74.24 74.24c0 40.96-33.28 74.24-74.24 74.24s-74.24-33.28-74.24-74.24zM614.4 750.08c0-40.96 33.28-74.24 74.24-74.24 40.96 0 74.24 33.28 74.24 74.24 0 40.96-33.28 74.24-74.24 74.24-43.52 0-74.24-33.28-74.24-74.24zM778.24 657.92c0-40.96 33.28-74.24 74.24-74.24 40.96 0 74.24 33.28 74.24 74.24s-33.28 74.24-74.24 74.24c-40.96 0-74.24-33.28-74.24-74.24zM547.84 30.72c7.68-7.68 30.72-15.36 56.32-15.36h12.8c56.32 10.24 92.16 51.2 115.2 130.56 17.92 66.56 20.48 151.04 7.68 217.6-23.04 125.44-110.08 171.52-215.04 171.52h-5.12c-48.64-7.68-84.48-23.04-112.64-48.64-15.36-12.8-23.04-28.16-28.16-38.4-5.12-25.6-2.56-38.4 5.12-48.64 7.68-10.24 23.04-20.48 53.76-35.84 2.56-2.56 2.56-2.56 5.12-2.56 43.52-23.04 64-33.28 81.92-58.88 28.16-38.4 43.52-81.92 40.96-130.56 0-28.16-5.12-51.2-15.36-84.48 0-2.56-2.56-5.12-2.56-10.24-5.12-12.8-5.12-20.48-7.68-25.6 5.12-10.24 5.12-17.92 7.68-20.48z m-102.4 35.84c2.56 10.24 5.12 23.04 10.24 38.4 0 5.12 2.56 5.12 2.56 7.68 7.68 25.6 10.24 40.96 10.24 58.88 0 25.6-5.12 46.08-20.48 64-5.12 7.68-15.36 15.36-46.08 28.16-2.56 2.56-2.56 2.56-7.68 2.56-43.52 23.04-66.56 35.84-87.04 61.44-33.28 38.4-38.4 87.04-23.04 143.36v2.56l2.56 2.56c10.24 23.04 28.16 48.64 56.32 76.8 43.52 38.4 99.84 66.56 171.52 76.8h12.8c51.2 0 110.08-10.24 163.84-38.4 79.36-40.96 133.12-112.64 151.04-217.6 12.8-81.92 12.8-179.2-10.24-261.12-30.72-112.64-97.28-181.76-192-202.24-10.24-2.56-20.48-2.56-35.84-2.56-51.2 0-102.4 15.36-133.12 51.2l-2.56 2.56c-20.48 30.72-28.16 66.56-23.04 104.96zM222.72 642.56c30.72 0 53.76 25.6 53.76 53.76 0 30.72-25.6 53.76-53.76 53.76-30.72 0-53.76-25.6-53.76-53.76s23.04-53.76 53.76-53.76z m0-102.4c-87.04 0-156.16 69.12-156.16 156.16 0 87.04 69.12 156.16 156.16 156.16 87.04 0 156.16-69.12 156.16-156.16 0-84.48-69.12-156.16-156.16-156.16z"  horiz-adv-x="1024" />

    
    <glyph glyph-name="pay-alipay-s" unicode="&#58884;" d="M512 891.546C231.69 891.546 4.454 664.31 4.454 384S231.69-123.54700000000003 512-123.54700000000003 1019.547 103.69000000000005 1019.547 384 792.31 891.546 512 891.546z m0-952.065C266.499-60.519000000000005 67.481 138.49900000000002 67.481 384S266.499 828.519 512 828.519 956.519 629.501 956.519 384 757.501-60.519000000000005 512-60.519000000000005zM610.411 338.93399999999997c48.711 88.565 66.424 172.702 66.424 172.702H512.988v61.996h194.844v26.57H512.989v92.994h-88.565v-92.994H247.293v-26.57h177.131v-61.996H273.863v-26.57h305.551c0-4.428 0-4.428-4.428-8.857 0-30.998-22.141-75.281-39.854-110.707-225.842 88.565-292.266 35.426-309.979 26.57-150.561-106.278-8.857-239.127 13.285-234.698 159.418-35.426 261.268 30.998 332.12 115.135 4.428-4.428 8.857-4.428 13.285-4.428 48.711-26.57 283.409-137.276 283.409-137.276V263.653c-35.427 0-163.847 44.283-256.841 75.281z m-115.135-39.855c-110.707-141.705-243.555-97.422-265.696-88.565-53.139 13.285-70.852 110.707-4.428 141.705 110.707 35.426 208.129-4.428 278.981-39.854-4.428-8.858-8.857-13.286-8.857-13.286z"  horiz-adv-x="1024" />

    
    <glyph glyph-name="KTV" unicode="&#58945;" d="M437.895833 288.516525c45.99569-25.553161 91.99138-40.885058 130.321121-45.99569l-237.644397-342.412358c-25.553161-35.774425-76.659483-30.663793-109.878593-12.77658l-38.329742 22.997845c-30.663793 17.887213-61.327587 61.327587-43.440373 102.212644l173.761495 383.297416c22.997845-35.774425 68.993535-74.104167 125.210489-107.323277m352.633623 86.880748c-45.99569-53.661638-94.546696-79.214799-145.653019-81.770116l-2.555316 2.555317c-35.774425-10.221264-107.323276 10.221264-181.427443 56.216954-74.104167 45.99569-130.321121 97.102012-137.98707 132.876437h-2.555316c-20.442529 43.440374-22.997845 97.102012-2.555316 163.540231 48.551006-63.882903 120.099857-127.765805 209.535921-181.427443 89.436064-51.106322 183.98276-84.325431 263.197559-91.99138m56.216954 81.770115c-5.110632-10.221264-10.221264-17.887213-15.331897-25.553161-74.104167 2.555316-173.761495 33.219109-275.974139 91.99138-97.102012 58.77227-173.761495 127.765805-214.646553 191.648708l15.331897 30.663793C445.561781 904.347707 606.546696 932.456184 741.97845 853.241385c137.98707-81.770115 191.648708-242.75503 104.76796-396.073997z m0 0"  horiz-adv-x="1024" />

    
    <glyph glyph-name="icon-test-copy" unicode="&#58885;" d="M511.169587 720.7444869999999c110.465904 0 205.064422-67.143213 243.044432-161.64247h51.551096c-40.08188 121.030517-156.949588 208.873168-294.595528 208.873168-137.644917 0-254.55151-87.842651-294.593482-208.873168h51.530631c37.981033 94.499258 132.578528 161.64247 243.062851 161.64247z m432.142208-176.233793H79.028403c-16.770965 0-30.379914-13.196557-30.379915-29.496801v-101.648075c0-16.300244 13.608949-29.496801 30.379915-29.496801h25.411763l66.809615-333.281619s3.770883-46.797839 40.572044-46.797839h601.148389c36.821627 0 40.59251 46.797839 40.59251 46.797839l66.809616 333.281619h22.937408c16.770965 0 30.360472 13.196557 30.360472 29.496801v101.648075c0.002047 16.299221-13.58746 29.496801-30.358425 29.496801zM382.656655 114.43147099999999c0-17.400299-14.493086-31.500435-32.383548-31.500434s-32.383548 14.100136-32.383548 31.500434V370.20071600000006c0 17.400299 14.493086 31.500435 32.383548 31.500435s32.383548-14.100136 32.383548-31.500435v-255.769245z m160.897503 0c0-17.400299-14.513552-31.500435-32.383548-31.500434-17.909905 0-32.383548 14.100136-32.383548 31.500434V370.20071600000006c0 17.400299 14.473643 31.500435 32.383548 31.500435 17.871019 0 32.383548-14.100136 32.383548-31.500435v-255.769245z m160.89648 0c0-17.400299-14.493086-31.500435-32.40299-31.500434-17.871019 0-32.364105 14.100136-32.364105 31.500434V370.20071600000006c0 17.400299 14.493086 31.500435 32.364105 31.500435 17.909905 0 32.402991-14.100136 32.40299-31.500435v-255.769245z"  horiz-adv-x="1024" />

    
    <glyph glyph-name="pengyou" unicode="&#59038;" d="M751.104 151.04l-216.064 108.032 65.536 95.232c3.072 4.608 4.608 9.728 4.608 15.36V521.216c0 98.816-79.36 176.128-180.224 176.128-101.376 0-180.224-77.312-180.224-176.128v-151.552c0-5.632 1.536-11.264 5.12-15.872l67.072-94.72-225.792-108.032c-9.728-4.608-15.36-14.336-15.36-24.576v-96.256c0-15.36 12.288-27.136 27.136-27.136h636.416c15.36 0 27.136 12.288 27.136 27.136v96.256c-0.512 10.24-6.144 19.968-15.36 24.576z m-39.936-93.184H129.536v51.712L368.64 224.256c7.168 3.584 12.8 10.24 14.848 17.92s0.512 15.872-4.096 22.528l-80.896 113.664V521.216c0 68.096 55.296 121.856 125.952 121.856s125.952-53.248 125.952-121.856v-143.36l-78.336-114.176c-4.608-6.656-6.144-14.848-4.096-22.528 2.048-7.68 7.168-14.336 14.336-17.408l229.376-114.688-0.512-51.2zM933.888 218.624l-216.064 108.032L783.36 421.888c3.072 4.608 4.608 9.728 4.608 15.36V588.8c0 98.816-79.36 176.128-180.224 176.128-19.456 0-38.912-3.072-57.344-8.704l16.896-52.224c12.8 4.096 26.624 6.144 40.448 6.144 70.656 0 125.952-53.248 125.952-121.856v-143.36L655.36 330.752c-4.608-6.656-6.144-14.848-4.096-22.528 2.048-7.68 7.168-14.336 14.336-17.408l229.376-114.688v-52.224h-68.096v-54.784H921.6c15.36 0 27.136 12.288 27.136 27.136v96.256c0 11.776-5.632 21.504-14.848 26.112z"  horiz-adv-x="1024" />

    
    <glyph glyph-name="shangchao1" unicode="&#58971;" d="M915.089721 356.316102H900.487225c9.734997-17.036245 14.602496-34.07249 14.602496-53.542483v-323.688652c0-58.409982-48.674985-107.084967-107.084968-107.084967h-591.401069c-58.409982 0-107.084967 48.674985-107.084967 107.084967V302.773619c0 19.469994 4.867499 38.939988 14.602495 53.542483h-14.602495c-58.409982 0-107.084967 48.674985-107.084968 107.084968v53.542483c0 58.409982 48.674985 107.084967 107.084968 107.084967h163.0612l-43.807487 43.807487c-51.108734 51.108734-51.108734 136.289958 0 187.398693 51.108734 51.108734 133.856209 51.108734 187.398693 0l94.916221-94.916221h2.433749l97.349971 97.34997c51.108734 51.108734 136.289958 51.108734 187.398692 0 51.108734-51.108734 51.108734-136.289958 0-187.398693L754.46227 626.46227h163.0612c58.409982 0 107.084967-48.674985 107.084967-107.084968v-53.542483C1022.174688 404.991087 973.499703 356.316102 915.089721 356.316102z m-80.313726-430.773618c14.602496 0 26.771242 12.168746 26.771242 26.771241V329.54486c0 14.602496-12.168746 26.771242-26.771242 26.771242h-296.917409v-430.773618h296.917409z m-674.148544 26.771241c0-14.602496 12.168746-26.771242 26.771242-26.771241h296.917409V356.316102h-296.917409c-14.602496 0-26.771242-12.168746-26.771242-26.771242v-377.231135z m-53.542484 618.172312c-29.204991 0-53.542484-24.337493-53.542483-53.542484v-53.542483c0-29.204991 24.337493-53.542484 53.542483-53.542484h377.231135v160.627451h-377.231135z m279.881165 245.808675c-34.07249 34.07249-87.614973 34.07249-119.253714 0-34.07249-34.07249-34.07249-87.614973 0-119.253714l70.578729-70.578728h146.024955v26.771242c0 41.373737 0 65.71123-24.337492 90.048722l-73.012478 73.012478z m367.496138-121.687463c34.07249 34.07249 34.07249 87.614973 0 119.253714-34.07249 34.07249-87.614973 34.07249-119.253714 0l-73.012478-73.012478c-24.337493-24.337493-24.337493-48.674985-24.337492-92.482472v-26.771242h146.024955l70.578729 73.012478z m214.169934-177.663696c0 29.204991-24.337493 53.542484-53.542483 53.542484h-377.231135v-160.627451H915.089721c29.204991 0 53.542484 24.337493 53.542483 53.542484v53.542483z"  horiz-adv-x="1026" />

    
    <glyph glyph-name="shangchao2" unicode="&#58972;" d="M991.663158 305.852632c-48.505263 0-94.315789 16.168421-132.042105 43.115789-29.642105-26.947368-75.452632-43.115789-123.957895-43.115789-56.589474 0-110.484211 21.557895-142.821053 59.28421-32.336842-37.726316-86.231579-59.284211-142.821052-59.28421-56.589474 0-107.789474 21.557895-137.431579 59.28421-35.031579-37.726316-91.621053-59.284211-148.210527-59.28421-48.505263 0-91.621053 16.168421-121.263158 45.810526-21.557895 21.557895-32.336842 51.2-29.642105 80.842105v2.694737l67.368421 358.4c10.778947 56.589474 64.673684 102.4 121.263158 102.4h746.442105c56.589474 0 110.484211-45.810526 121.263158-102.4l67.368421-361.094737c2.694737-29.642105-8.084211-59.284211-29.642105-80.842105-24.252632-29.642105-67.368421-45.810526-115.873684-45.810526z m-134.736842 113.178947l35.031579-26.947368c26.947368-21.557895 61.978947-32.336842 99.705263-32.336843 35.031579 0 64.673684 10.778947 83.536842 29.642106 10.778947 10.778947 16.168421 26.947368 16.168421 40.421052L1024 782.821053c-5.389474 32.336842-40.421053 61.978947-72.757895 61.978947h-746.442105c-32.336842 0-64.673684-29.642105-72.757895-61.978947l-64.673684-355.705264c0-16.168421 5.389474-29.642105 16.168421-40.421052 18.863158-18.863158 48.505263-29.642105 83.536842-29.642105 43.115789 0 83.536842 16.168421 110.484211 43.115789l40.421052 43.11579 37.726316-48.505264c18.863158-24.252632 56.589474-40.421053 97.010526-40.421052 43.115789 0 80.842105 16.168421 102.4 43.115789l37.726316 45.810527 37.726316-45.810527c24.252632-26.947368 61.978947-43.115789 105.094737-43.115789 35.031579 0 67.368421 10.778947 88.926316 29.642105l32.336842 35.031579zM80.842105 464.842105H1077.894737c16.168421 0 26.947368-10.778947 26.947368-26.947368s-10.778947-26.947368-26.947368-26.947369h-997.052632c-16.168421 0-26.947368 10.778947-26.947368 26.947369s10.778947 26.947368 26.947368 26.947368zM350.315789 416.336842l-53.894736 8.084211 61.978947 441.936842 53.894737-5.389474zM625.178947 400.168421h-53.894736V860.968421h53.894736zM891.957895 394.778947l-53.894737-2.694736-35.031579 468.88421 53.894737 2.694737zM970.105263-74.105263V330.105263h53.894737v-458.105263h-862.315789V330.105263h53.894736v-404.210526zM1104.842105-128h-997.052631c-16.168421 0-26.947368 10.778947-26.947369 26.947368s10.778947 26.947368 26.947369 26.947369H1104.842105c16.168421 0 26.947368-10.778947 26.947369-26.947369s-10.778947-26.947368-26.947369-26.947368zM673.684211 357.052632c16.168421 0 26.947368-10.778947 26.947368-26.947369v-404.210526c0-16.168421-10.778947-26.947368-26.947368-26.947369s-26.947368 10.778947-26.947369 26.947369V330.105263c0 16.168421 10.778947 26.947368 26.947369 26.947369zM794.947368 154.947368m-40.421052 0a40.421053 40.421053 0 1 1 80.842105 0 40.421053 40.421053 0 1 1-80.842105 0ZM309.894737 92.968421c-5.389474 0-10.778947 2.694737-16.168421 5.389474-13.473684 8.084211-16.168421 24.252632-8.084211 37.726316l75.452632 110.48421c8.084211 13.473684 24.252632 16.168421 37.726316 8.084211 13.473684-8.084211 16.168421-24.252632 8.08421-37.726316l-75.452631-110.484211c-5.389474-8.084211-13.473684-13.473684-21.557895-13.473684zM342.231579-33.684211c-5.389474 0-10.778947 2.694737-16.168421 5.389474-10.778947 8.084211-13.473684 26.947368-5.389474 37.726316l185.936842 247.915789c8.084211 10.778947 26.947368 13.473684 37.726316 5.389474 10.778947-8.084211 13.473684-26.947368 5.389474-37.726316l-185.936842-247.915789c-5.389474-8.084211-13.473684-10.778947-21.557895-10.778948zM501.221053-33.684211c-5.389474 0-10.778947 2.694737-13.473685 5.389474-13.473684 8.084211-16.168421 24.252632-8.08421 37.726316L565.894737 141.473684c8.084211 13.473684 24.252632 16.168421 37.726316 8.084211 13.473684-8.084211 16.168421-24.252632 8.08421-37.726316l-86.231579-132.042105c-5.389474-8.084211-13.473684-13.473684-24.252631-13.473685z"  horiz-adv-x="1158" />

    
    <glyph glyph-name="quanbu" unicode="&#58958;" d="M961.25 549.333L780.5 368.583c-30.75-30.75-81-30.75-111.75 0L488 549.333c-30.75 30.75-30.75 81 0 111.75l180.75 180.75c30.75 30.75 81 30.75 111.75 0l180.75-181.5c30.75-30 30.75-80.25 0-111z m-50.25 81l-161.25 161.25c-13.5 13.5-36 13.5-49.5 0L539 630.333c-13.5-13.5-13.5-36 0-49.5l161.25-161.25c13.5-13.5 36-13.5 49.5 0L911 580.833c14.25 13.5 14.25 35.25 0 49.5z m-531-705H124.25c-43.5 0-78.75 35.25-78.75 78.75v256.5c0 43.5 35.25 78.75 78.75 78.75H380c43.5 0 78.75-35.25 78.75-78.75v-256.5c0-43.5-35.25-78.75-78.75-78.75z m0 473.25H124.25c-43.5 0-78.75 35.25-78.75 78.75v255.75c0 43.5 35.25 78.75 78.75 78.75H380c43.5 0 78.75-35.25 78.75-78.75v-256.5c0-42.75-35.25-78-78.75-78z m216.75-59.25H852.5c43.5 0 78.75-35.25 78.75-78.75v-256.5c0-43.5-35.25-78.75-78.75-78.75H596.75c-43.5 0-78.75 35.25-78.75 78.75v256.5c0 43.5 35.25 78.75 78.75 78.75z"  horiz-adv-x="1024" />

    
    <glyph glyph-name="shangchao3" unicode="&#58993;" d="M1233.745383 592.822023L1131.309472 822.741715A123.354024 123.354024 0 0 1 1018.638948 896H224.558639a123.443802 123.443802 0 0 1-112.221637-71.821848L4.334897 588.60249a15.35192 15.35192 0 0 1-4.219533-12.568824c0-118.236718 89.77731-175.783973 180.452393-175.783973a199.036297 199.036297 0 0 1 107.732773 30.793618 64.729441 64.729441 0 0 0 35.013151 10.32439 68.589865 68.589865 0 0 0 37.347361-11.222164 205.59004 205.59004 0 0 1 216.901981 0 67.602315 67.602315 0 0 0 73.796949 0 205.59004 205.59004 0 0 1 216.363317-0.98755 67.961424 67.961424 0 0 0 74.425391 0 196.522532 196.522532 0 0 1 106.386112-29.985622c92.650184 0 185.210591 62.844117 189.430125 181.080835 0 4.129756-4.219534 8.34929-4.219534 12.568823z m-98.755041-99.832368a138.436612 138.436612 0 0 0-158.816062-11.04261 132.421533 132.421533 0 0 1-71.821848 21.367 130.1771 130.1771 0 0 1-70.654743-20.828336 142.835701 142.835701 0 0 0-147.953007 0 130.715764 130.715764 0 0 1-142.117482 0A142.745923 142.745923 0 0 0 395.135529 483.024373a130.985096 130.985096 0 0 1-71.821848 21.367 127.214449 127.214449 0 0 1-69.308084-20.469227 136.102402 136.102402 0 0 0-73.796949-20.648781 128.291776 128.291776 0 0 0-83.044012 28.279853A102.705243 102.705243 0 0 0 62.959481 566.337717l106.116781 231.445906A60.869016 60.869016 0 0 0 224.558639 833.155883h794.439418a60.509907 60.509907 0 0 0 55.392601-35.910924l99.293705-224.443276c0-0.807996 0.448887-1.526214 0.718218-2.154655a115.543398 115.543398 0 0 0-39.142907-77.657373zM1098.810086 352.30861a31.422059 31.422059 0 0 1-31.422059-31.422059v-311.07838a74.964054 74.964054 0 0 0-74.874276-74.964054H244.578979a75.053831 75.053831 0 0 0-74.964054 74.964054V320.886551a31.422059 31.422059 0 0 1-62.844117 0v-311.07838a137.987726 137.987726 0 0 1 137.808171-137.808171h747.934772a137.897948 137.897948 0 0 1 137.718393 137.808171V320.886551a31.422059 31.422059 0 0 1-31.422058 31.422059zM376.102739 340.817114l-105.039453-127.573558a31.422059 31.422059 0 0 1 48.479747-39.950903l105.129231 127.573558a31.422059 31.422059 0 0 1-48.569525 39.950903zM339.204264 45.180431a31.422059 31.422059 0 0 1 44.170437 4.399089l206.487813 251.376468a31.422059 31.422059 0 0 1-48.569524 39.861126l-206.487814-251.376469a31.511836 31.511836 0 0 1 4.399088-44.260214z"  horiz-adv-x="1237" />

    
    <glyph glyph-name="chaoshi" unicode="&#58886;" d="M512.109714 591.853714c69.796571 0 129.572571-42.422857 153.581715-102.144h32.566857C672.932571 566.198857 599.094857 621.714286 512.109714 621.714286s-160.859429-55.497143-186.148571-131.986286h32.548571c24.009143 59.721143 83.785143 102.144 153.6 102.144z m273.078857-111.36H239.030857c-10.605714 0-19.2-8.338286-19.2-18.651428v-64.219429c0-10.294857 8.594286-18.651429 19.2-18.651428h16.054857l42.24-210.596572s2.377143-29.568 25.618286-29.568h379.867429c23.277714 0 25.654857 29.568 25.654857 29.568l42.221714 210.596572h14.482286c10.605714 0 19.2 8.356571 19.2 18.651428v64.219429c0 10.313143-8.594286 18.651429-19.2 18.651428zM430.902857 208.713143c0-10.971429-9.161143-19.894857-20.48-19.894857-11.300571 0-20.443429 8.905143-20.443428 19.894857v161.645714c0 10.971429 9.142857 19.894857 20.461714 19.894857 11.300571 0 20.461714-8.923429 20.461714-19.913143v-161.627428z m101.668572 0c0-10.971429-9.179429-19.894857-20.48-19.894857-11.300571 0-20.443429 8.905143-20.443429 19.894857v161.645714c0 10.971429 9.142857 19.894857 20.461714 19.894857 11.282286 0 20.461714-8.923429 20.461715-19.913143v-161.627428z m101.668571 0c0-10.971429-9.142857-19.894857-20.48-19.894857-11.282286 0-20.443429 8.905143-20.443429 19.894857v161.645714c0 10.971429 9.142857 19.894857 20.443429 19.894857 11.337143 0 20.48-8.923429 20.48-19.913143v-161.627428z"  horiz-adv-x="1024" />

    
    <glyph glyph-name="jiaoya2" unicode="&#58887;" d="M365.9 710.69999999c0.1-60.3-36.19999999-114.6-91.8-137.69999999-55.6-23.1-119.7-10.4-162.4 32.2-42.6 42.6-55.4 106.7-32.39999999 162.3 23 55.7 77.39999999 92 137.59999999 92 82.3-0.1 148.89999999-66.7 149-148.80000001zM567 785.1c0-30.09999999-18.1-57.3-45.9-68.9-27.8-11.6-59.9-5.2-81.2 16.1-21.3 21.3-27.7 53.3-16.2 81.2 11.5 27.8 38.7 46 68.8 46 41.1 0 74.5-33.3 74.5-74.5l0 0.1z m215.8-18.7c0-41.1-33.3-74.5-74.5-74.5-41.1 0-74.5 33.3-74.5 74.5 0 41.1 33.3 74.5 74.5 74.5 41.1 0 74.5-33.4 74.5-74.5z m175.10000001-96.7c0-41.1-33.3-74.5-74.50000001-74.5-41.1 0-74.5 33.3-74.5 74.5 0 41.1 33.3 74.5 74.5 74.5 41.2-0.1 74.5-33.4 74.50000001-74.5zM299.8 477.9s47.50000001 131.3 229 153.6c0 0 280.2 19.5 328.5-256.7 23.60000001-135 13.7-427.4-202.8-471.9-52.3-10.69999999-203.9 2.60000001-184.3 139.5 6.9 48.4 52.3 127.09999999 1e-8 195.5-36.2 47.50000001-217.8 61.4-170.50000002 240.2"  horiz-adv-x="1024" />

    
    <glyph glyph-name="jiaoya3" unicode="&#58888;" d="M409.6 768c0-40.96 33.28-74.24 74.24-74.24s74.24 33.28 74.24 74.24c0 40.96-33.28 74.24-74.24 74.24S409.6 808.96 409.6 768z m204.8-17.92c0-40.96 33.28-74.24 74.24-74.24 40.96 0 74.24 33.28 74.24 74.24 0 40.96-33.28 74.24-74.24 74.24-43.52 0-74.24-33.28-74.24-74.24z m163.84-92.16c0-40.96 33.28-74.24 74.24-74.24 40.96 0 74.24 33.28 74.24 74.24s-33.28 74.24-74.24 74.24c-40.96 0-74.24-33.28-74.24-74.24z m-230.4-627.2c7.68-7.68 30.72-15.36 56.32-15.36h12.8c56.32 10.24 92.16 51.2 115.2 130.56 17.92 66.56 20.48 151.04 7.68 217.6C716.8 488.96 629.76 535.04 524.8 535.04h-5.12c-48.64-7.68-84.48-23.04-112.64-48.64-15.36-12.8-23.04-28.16-28.16-38.4-5.12-25.6-2.56-38.4 5.12-48.64 7.68-10.24 23.04-20.48 53.76-35.84 2.56-2.56 2.56-2.56 5.12-2.56 43.52-23.04 64-33.28 81.92-58.88 28.16-38.4 43.52-81.92 40.96-130.56 0-28.16-5.12-51.2-15.36-84.48 0-2.56-2.56-5.12-2.56-10.24-5.12-12.8-5.12-20.48-7.68-25.6 5.12-10.24 5.12-17.92 7.68-20.48z m-102.4 35.84c2.56 10.24 5.12 23.04 10.24 38.4 0 5.12 2.56 5.12 2.56 7.68 7.68 25.6 10.24 40.96 10.24 58.88 0 25.6-5.12 46.08-20.48 64-5.12 7.68-15.36 15.36-46.08 28.16-2.56 2.56-2.56 2.56-7.68 2.56-43.52 23.04-66.56 35.84-87.04 61.44-33.28 38.4-38.4 87.04-23.04 143.36v2.56l2.56 2.56c10.24 23.04 28.16 48.64 56.32 76.8 43.52 38.4 99.84 66.56 171.52 76.8h12.8c51.2 0 110.08-10.24 163.84-38.4 79.36-40.96 133.12-112.64 151.04-217.6 12.8-81.92 12.8-179.2-10.24-261.12C801.28 0 734.72-69.12 640-89.6c-10.24-2.56-20.48-2.56-35.84-2.56-51.2 0-102.4 15.36-133.12 51.2l-2.56 2.56c-20.48 30.72-28.16 66.56-23.04 104.96z m-222.72 576c30.72 0 53.76 25.6 53.76 53.76 0 30.72-25.6 53.76-53.76 53.76-30.72 0-53.76-25.6-53.76-53.76s23.04-53.76 53.76-53.76z m0-102.4c-87.04 0-156.16 69.12-156.16 156.16 0 87.04 69.12 156.16 156.16 156.16 87.04 0 156.16-69.12 156.16-156.16 0-84.48-69.12-156.16-156.16-156.16z"  horiz-adv-x="1024" />

    
    <glyph glyph-name="jiudian" unicode="&#58889;" d="M1062.760296-111.085037h-354.228148V480.028444c0 36.295111 28.823704 65.687704 64.398222 65.687704h193.232593c35.574519 0 64.398222-29.392593 64.398222-65.687704v-525.425777h32.237037c17.749333 0 32.161185-14.715259 32.161185-32.843852s-14.411852-32.843852-32.199111-32.843852z m-214.66074 503.542518h42.894222c17.825185 0 32.237037-14.715259 32.237037-32.843851s-14.411852-32.843852-32.237037-32.843852h-42.932148a32.540444 32.540444 0 0 0-32.199111 32.843852c0 18.128593 14.411852 32.843852 32.237037 32.843851z m0-131.375407h42.894222c17.825185 0 32.237037-14.677333 32.237037-32.805926 0-18.166519-14.411852-32.843852-32.237037-32.843852h-42.932148a32.540444 32.540444 0 0 0-32.199111 32.843852c0 18.128593 14.411852 32.805926 32.237037 32.805926z m0-131.337481h42.894222c17.825185 0 32.237037-14.715259 32.237037-32.843852s-14.411852-32.843852-32.237037-32.843852h-42.932148a32.540444 32.540444 0 0 0-32.199111 32.843852c0 18.128593 14.411852 32.843852 32.237037 32.843852zM359.61363-111.085037H32.237037a32.237037 32.237037 0 0 0-32.199111 32.237037v1.251556c0 17.787259 14.411852 32.199111 32.237037 32.199111h32.161185V808.391111C64.398222 856.784593 102.855111 896 150.300444 896h472.329482c47.407407 0 85.864296-39.215407 85.864296-87.570963v-919.514074H359.61363zM257.630815 655.17037c-23.703704 0-42.932148-19.607704-42.932148-43.766518 0-24.196741 19.228444-43.804444 42.932148-43.804445h257.668741c23.703704 0 42.932148 19.607704 42.932148 43.804445 0 24.158815-19.228444 43.766519-42.932148 43.766518H257.630815z m0-218.908444c-23.703704 0-42.932148-19.607704-42.932148-43.804445s19.228444-43.766519 42.932148-43.766518h257.668741c23.703704 0 42.932148 19.569778 42.932148 43.766518 0 24.196741-19.228444 43.804444-42.932148 43.804445H257.630815z m0-218.94637c-23.703704 0-42.932148-19.607704-42.932148-43.804445 0-24.158815 19.228444-43.766519 42.932148-43.766518h257.668741c23.703704 0 42.932148 19.607704 42.932148 43.766518 0 24.196741-19.228444 43.804444-42.932148 43.804445H257.630815z"  horiz-adv-x="1099" />

    
    </font>
</defs>
</svg>
